<?xml version="1.0" encoding="UTF-8" standalone="no"?>
<!-- Generator: Adobe Illustrator 15.0.0, SVG Export Plug-In . SVG Version: 6.00 Build 0)  -->

<svg
   xmlns:dc="http://purl.org/dc/elements/1.1/"
   xmlns:cc="http://creativecommons.org/ns#"
   xmlns:rdf="http://www.w3.org/1999/02/22-rdf-syntax-ns#"
   xmlns:svg="http://www.w3.org/2000/svg"
   xmlns="http://www.w3.org/2000/svg"
   xmlns:sodipodi="http://sodipodi.sourceforge.net/DTD/sodipodi-0.dtd"
   xmlns:inkscape="http://www.inkscape.org/namespaces/inkscape"
   version="1.1"
   id="Layer_1"
   x="0px"
   y="0px"
   width="418.98679"
   height="866.91901"
   viewBox="0 0 418.98679 866.91901"
   enable-background="new 0 0 1000 1000"
   xml:space="preserve"
   inkscape:version="0.48.5 r10040"
   sodipodi:docname="f_heutevorgeschlagen.svg"><metadata
   id="metadata3850"><rdf:RDF><cc:Work
       rdf:about=""><dc:format>image/svg+xml</dc:format><dc:type
         rdf:resource="http://purl.org/dc/dcmitype/StillImage" /></cc:Work></rdf:RDF></metadata><defs
   id="defs3848" /><sodipodi:namedview
   pagecolor="#ffffff"
   bordercolor="#666666"
   borderopacity="1"
   objecttolerance="10"
   gridtolerance="10"
   guidetolerance="10"
   inkscape:pageopacity="0"
   inkscape:pageshadow="2"
   inkscape:window-width="636"
   inkscape:window-height="480"
   id="namedview3846"
   showgrid="false"
   fit-margin-top="0"
   fit-margin-left="0"
   fit-margin-right="0"
   fit-margin-bottom="0"
   inkscape:zoom="0.236"
   inkscape:cx="209.15625"
   inkscape:cy="416.01278"
   inkscape:window-x="4"
   inkscape:window-y="0"
   inkscape:window-maximized="0"
   inkscape:current-layer="Layer_1" />
<g
   id="g3836"
   transform="translate(-290.84375,-49.09375)">
	<path
   d="m 504.254,227.261 c -52.172,0 -94.445,-37.654 -94.445,-84.119 0,-46.466 42.273,-84.12 94.445,-84.12 52.172,0 94.445,37.654 94.445,84.12 0,46.464 -42.273,84.119 -94.445,84.119"
   id="path3838"
   inkscape:connector-curvature="0"
   style="fill:#ffffff" />
	<path
   stroke-miterlimit="10"
   d="m 504.254,227.261 c -52.172,0 -94.445,-37.654 -94.445,-84.119 0,-46.466 42.273,-84.12 94.445,-84.12 52.172,0 94.445,37.654 94.445,84.12 0,46.464 -42.273,84.119 -94.445,84.119 z"
   id="path3840"
   inkscape:connector-curvature="0"
   style="fill:none;stroke:#00aeef;stroke-width:19.875;stroke-miterlimit:10" />
	<path
   d="m 630.977,581.788 c 0,17.08 14.498,28.823 37.033,28.823 22.514,0 29.268,-19.817 30.977,-42.836 1.746,-23 3.727,-200.517 -25.814,-248.438 -29.541,-47.902 -46.504,-68.088 -82.645,-68.088 h -192.85 c 0,0 -38.439,19.798 -55.656,45.088 -17.186,25.31 -41.234,113.291 -41.234,199.371 0,86.079 6.832,105.663 24.049,110.283 0,0 37.08,3.959 46.348,-14.053 0,0 -6.221,-197.449 18.74,-223.535 V 873.72 c 0,0 12.916,48.329 74.91,26.862 0,0 26.688,2.136 27.541,-58.363 0.854,-60.498 0.854,-274.445 0.854,-274.445 h 19.799 V 873.72 c 0,0 12.062,32.355 27.57,32.355 27.531,0 48.184,0.621 61.982,-13.159 13.781,-13.819 13.781,-31.656 13.781,-50.697 V 371.49 c 27.269,21.467 14.615,193.218 14.615,210.298"
   id="path3842"
   inkscape:connector-curvature="0"
   style="fill:#ffffff" />
	<path
   stroke-miterlimit="10"
   d="m 630.977,581.788 c 0,17.08 14.498,28.823 37.033,28.823 22.514,0 29.268,-19.817 30.977,-42.836 1.746,-23 3.727,-200.517 -25.814,-248.438 -29.541,-47.902 -46.504,-68.088 -82.645,-68.088 h -192.85 c 0,0 -38.439,19.798 -55.656,45.088 -17.186,25.31 -41.234,113.291 -41.234,199.371 0,86.079 6.832,105.663 24.049,110.283 0,0 37.08,3.959 46.348,-14.053 0,0 -6.221,-197.449 18.74,-223.535 V 873.72 c 0,0 12.916,48.329 74.91,26.862 0,0 26.688,2.136 27.541,-58.363 0.854,-60.498 0.854,-274.445 0.854,-274.445 h 19.799 V 873.72 c 0,0 12.062,32.355 27.57,32.355 27.531,0 48.184,0.621 61.982,-13.159 13.781,-13.819 13.781,-31.656 13.781,-50.697 V 371.49 c 27.269,21.467 14.615,193.218 14.615,210.298 z"
   id="path3844"
   inkscape:connector-curvature="0"
   style="fill:none;stroke:#00aeef;stroke-width:19.875;stroke-miterlimit:10" />
</g>
</svg>