<?xml version="1.0" encoding="UTF-8" standalone="no"?>
<!-- Generator: Adobe Illustrator 15.0.0, SVG Export Plug-In . SVG Version: 6.00 Build 0)  -->

<svg
   xmlns:dc="http://purl.org/dc/elements/1.1/"
   xmlns:cc="http://creativecommons.org/ns#"
   xmlns:rdf="http://www.w3.org/1999/02/22-rdf-syntax-ns#"
   xmlns:svg="http://www.w3.org/2000/svg"
   xmlns="http://www.w3.org/2000/svg"
   xmlns:sodipodi="http://sodipodi.sourceforge.net/DTD/sodipodi-0.dtd"
   xmlns:inkscape="http://www.inkscape.org/namespaces/inkscape"
   version="1.1"
   id="Layer_1"
   x="0px"
   y="0px"
   width="397.58981"
   height="838.31641"
   viewBox="0 0 397.58981 838.31641"
   enable-background="new 0 0 1000 1000"
   xml:space="preserve"
   inkscape:version="0.48.5 r10040"
   sodipodi:docname="f_unterzubringen.svg"><metadata
   id="metadata3936"><rdf:RDF><cc:Work
       rdf:about=""><dc:format>image/svg+xml</dc:format><dc:type
         rdf:resource="http://purl.org/dc/dcmitype/StillImage" /></cc:Work></rdf:RDF></metadata><defs
   id="defs3934" /><sodipodi:namedview
   pagecolor="#ffffff"
   bordercolor="#666666"
   borderopacity="1"
   objecttolerance="10"
   gridtolerance="10"
   guidetolerance="10"
   inkscape:pageopacity="0"
   inkscape:pageshadow="2"
   inkscape:window-width="640"
   inkscape:window-height="480"
   id="namedview3932"
   showgrid="false"
   fit-margin-top="0"
   fit-margin-left="0"
   fit-margin-right="0"
   fit-margin-bottom="0"
   inkscape:zoom="0.236"
   inkscape:cx="198.28125"
   inkscape:cy="412.16018"
   inkscape:window-x="0"
   inkscape:window-y="0"
   inkscape:window-maximized="0"
   inkscape:current-layer="Layer_1" />
<g
   id="g3922"
   transform="translate(-301.71875,-73.84375)">
	<path
   d="m 504.375,241.844 c -51.316,0 -92.91,-37.052 -92.91,-82.761 0,-45.709 41.594,-82.761 92.91,-82.761 51.318,0 92.912,37.052 92.912,82.761 0,45.709 -41.594,82.761 -92.912,82.761"
   id="path3924"
   inkscape:connector-curvature="0"
   style="fill:#41ad49" />
	<path
   stroke-miterlimit="10"
   d="m 504.375,241.844 c -51.316,0 -92.91,-37.052 -92.91,-82.761 0,-45.709 41.594,-82.761 92.91,-82.761 51.318,0 92.912,37.052 92.912,82.761 0,45.709 -41.594,82.761 -92.912,82.761 z"
   id="path3926"
   inkscape:connector-curvature="0"
   style="fill:none;stroke:#000000;stroke-width:4.96880007;stroke-miterlimit:10" />
	<path
   d="m 629.061,590.627 c 0,16.788 14.246,28.337 36.412,28.337 22.184,0 28.783,-19.486 30.51,-42.118 1.689,-22.631 3.631,-197.274 -25.426,-244.419 -29.055,-47.126 -45.727,-67.001 -81.305,-67.001 H 399.527 c 0,0 -37.809,19.487 -54.744,44.389 -16.924,24.883 -40.584,111.429 -40.584,196.11 0,84.702 6.744,103.975 23.66,108.517 0,0 36.488,3.901 45.611,-13.819 0,0 -6.123,-194.267 18.439,-219.925 v 497.127 c 0,0 12.703,47.553 73.676,26.416 0,0 26.262,2.096 27.115,-57.412 0.834,-59.509 0.834,-269.982 0.834,-269.982 h 19.498 v 300.979 c 0,0 11.838,31.831 27.084,31.831 27.125,0 47.447,0.621 60.994,-12.965 13.566,-13.567 13.566,-31.113 13.566,-49.862 V 383.725 c 26.826,21.117 14.385,190.093 14.385,206.902"
   id="path3928"
   inkscape:connector-curvature="0"
   style="fill:#41ad49" />
	<path
   stroke-miterlimit="10"
   d="m 629.061,590.627 c 0,16.788 14.246,28.337 36.412,28.337 22.184,0 28.783,-19.486 30.51,-42.118 1.689,-22.631 3.631,-197.274 -25.426,-244.419 -29.055,-47.126 -45.727,-67.001 -81.305,-67.001 H 399.527 c 0,0 -37.809,19.487 -54.744,44.389 -16.924,24.883 -40.584,111.429 -40.584,196.11 0,84.702 6.744,103.975 23.66,108.517 0,0 36.488,3.901 45.611,-13.819 0,0 -6.123,-194.267 18.439,-219.925 v 497.127 c 0,0 12.703,47.553 73.676,26.416 0,0 26.262,2.096 27.115,-57.412 0.834,-59.509 0.834,-269.982 0.834,-269.982 h 19.498 v 300.979 c 0,0 11.838,31.831 27.084,31.831 27.125,0 47.447,0.621 60.994,-12.965 13.566,-13.567 13.566,-31.113 13.566,-49.862 V 383.725 c 26.826,21.117 14.385,190.093 14.385,206.902 z"
   id="path3930"
   inkscape:connector-curvature="0"
   style="fill:none;stroke:#000000;stroke-width:4.96880007;stroke-miterlimit:10" />
</g>
</svg>