<?xml version="1.0" encoding="UTF-8" standalone="no"?>
<!-- Created with Inkscape (http://www.inkscape.org/) -->

<svg
   xmlns:dc="http://purl.org/dc/elements/1.1/"
   xmlns:cc="http://creativecommons.org/ns#"
   xmlns:rdf="http://www.w3.org/1999/02/22-rdf-syntax-ns#"
   xmlns:svg="http://www.w3.org/2000/svg"
   xmlns="http://www.w3.org/2000/svg"
   xmlns:sodipodi="http://sodipodi.sourceforge.net/DTD/sodipodi-0.dtd"
   xmlns:inkscape="http://www.inkscape.org/namespaces/inkscape"
   id="svg2985"
   version="1.1"
   inkscape:version="0.48.5 r10040"
   width="430.75015"
   height="58.030327"
   xml:space="preserve"
   sodipodi:docname="logo_black.svg"><metadata
     id="metadata2991"><rdf:RDF><cc:Work
         rdf:about=""><dc:format>image/svg+xml</dc:format><dc:type
           rdf:resource="http://purl.org/dc/dcmitype/StillImage" /><dc:title></dc:title></cc:Work></rdf:RDF></metadata><defs
     id="defs2989" /><sodipodi:namedview
     pagecolor="#00ffff"
     bordercolor="#666666"
     borderopacity="1"
     objecttolerance="10"
     gridtolerance="10"
     guidetolerance="10"
     inkscape:pageopacity="0.72941176"
     inkscape:pageshadow="2"
     inkscape:window-width="1920"
     inkscape:window-height="1138"
     id="namedview2987"
     showgrid="false"
     fit-margin-top="0"
     fit-margin-left="0"
     fit-margin-right="0"
     fit-margin-bottom="0"
     inkscape:zoom="1.5299583"
     inkscape:cx="251.60404"
     inkscape:cy="-63.107494"
     inkscape:window-x="-8"
     inkscape:window-y="-8"
     inkscape:window-maximized="1"
     inkscape:current-layer="g2993" /><g
     id="g2993"
     inkscape:groupmode="layer"
     inkscape:label="ink_ext_XXXXXX"
     transform="matrix(1.25,0,0,-1.25,-38.399148,71.850639)"><g
   id="g2995"
   transform="scale(0.1,0.1)"
   style="fill:#ffffff"><g
     id="g2997"
     transform="scale(10,10)"
     style="fill:#ffffff"><g
   transform="matrix(1,0,0,-1,28.5809,35.1047)"
   style="fill:#ffffff"
   id="text2999"><path
     d="m 2.1384182,-21.511849 0,21.511849 4.8513369,0 0,-9.0005066 8.0110889,0 0,9.0005066 4.851337,0 0,-21.511849 -4.851337,0 0,8.266423 -8.0110889,0 0,-8.266423 z"
     style="font-size:31.91710090999999800px;font-variant:normal;font-weight:600;writing-mode:lr-tb;fill:#ffffff;fill-opacity:1;fill-rule:nonzero;stroke:none;font-family:Myriad Pro;-inkscape-font-specification:MyriadPro-Semibold"
     id="path3090" /><path
     d="m 38.619471,-4.4045032 c -0.509354,0.2107871 -1.126409,0.3796794 -1.851168,0.5066772 -0.724789,0.1270056 -1.469511,0.1921689 -2.234168,0.19549 -2.171011,-0.023269 -3.853285,-0.654953 -5.046827,-1.8950537 -1.193558,-1.2400896 -1.798645,-2.9489605 -1.815262,-5.1266183 0.04521,-2.391079 0.704821,-4.175752 1.978835,-5.354025 1.273998,-1.178241 2.891109,-1.766039 4.851337,-1.763397 0.87836,0.0073 1.658988,0.08845 2.341887,0.243366 0.682868,0.154946 1.264017,0.339797 1.743449,0.554552 l 1.021334,-3.830003 c -0.440202,-0.249329 -1.115772,-0.468756 -2.02671,-0.658283 -0.910971,-0.189483 -2.001456,-0.289222 -3.27146,-0.299218 -3.337964,0.01598 -6.109394,0.997418 -8.314298,2.944315 -2.204914,1.946934 -3.348594,4.763579 -3.431044,8.449943 0.0047,3.1305035 0.952844,5.694475 2.844575,7.6919227 1.891723,1.99745308 4.699059,3.02942503 8.422016,3.09591889 1.305911,-0.0126342 2.436292,-0.11503358 3.391148,-0.30719838 0.954825,-0.19216488 1.654332,-0.39829322 2.098523,-0.61838563 z"
     style="font-size:31.91710090999999800px;font-variant:normal;font-weight:600;writing-mode:lr-tb;fill:#ffffff;fill-opacity:1;fill-rule:nonzero;stroke:none;font-family:Myriad Pro;-inkscape-font-specification:MyriadPro-Semibold"
     id="path3092" /><path
     d="m 42.322047,-21.511849 0,12.0006754 c 0.01862,3.3991339 0.771318,5.8966124 2.258106,7.492443 1.486781,1.59583456 3.59594,2.38577185 6.327484,2.36981419 2.831263,0.006649 5.028192,-0.79658686 6.590796,-2.40971059 1.562569,-1.6131196 2.355166,-4.0760215 2.377794,-7.3887132 l 0,-12.0645088 -4.851337,0 0,12.351759 c -0.0053,1.9096895 -0.345778,3.3246613 -1.021334,4.2449197 -0.675584,0.9202683 -1.654361,1.3777404 -2.936336,1.3724177 -1.237446,-6.617e-4 -2.193616,-0.4701027 -2.868513,-1.4083246 -0.674912,-0.9382121 -1.016686,-2.3412149 -1.025323,-4.2090128 l 0,-12.351759 z"
     style="font-size:31.91710090999999800px;font-variant:normal;font-weight:600;writing-mode:lr-tb;fill:#ffffff;fill-opacity:1;fill-rule:nonzero;stroke:none;font-family:Myriad Pro;-inkscape-font-specification:MyriadPro-Semibold"
     id="path3094" /></g>


<g
   transform="matrix(1,0,0,-1,106.8289,48.2109)"
   style="fill:#ffffff"
   id="text3003"><path
     d="m 0.85536458,-8.6047124 0,8.6047124 1.94052862,0 0,-3.6001912 3.2044255,0 0,3.6001912 1.9405286,0 0,-8.6047124 -1.9405286,0 0,3.3065586 -3.2044255,0 0,-3.3065586 z"
     style="font-size:12.76679992999999900px;font-variant:normal;font-weight:600;writing-mode:lr-tb;fill:#ffffff;fill-opacity:1;fill-rule:nonzero;stroke:none;font-family:Myriad Pro;-inkscape-font-specification:MyriadPro-Semibold"
     id="path3097" /><path
     d="m 14.554075,-3.6895577 c 0.01622,-0.7606743 -0.179005,-1.3968777 -0.585669,-1.9086122 -0.406676,-0.5117232 -1.122139,-0.7776945 -2.146391,-0.7979145 -0.571044,0.00825 -1.063091,0.071553 -1.476142,0.1899038 -0.4130557,0.1183633 -0.7295615,0.2423059 -0.9495189,0.3718281 l 0.3574658,1.2511303 c 0.2106482,-0.131385 0.4691721,-0.2420291 0.7755731,-0.3319325 0.306397,-0.089894 0.622371,-0.1367045 0.947923,-0.140433 0.466244,0.012506 0.775303,0.1055959 0.927176,0.2792703 0.151866,0.1736839 0.221551,0.3529486 0.209054,0.5377944 l 0,0.0766 c -1.118945,-0.00186 -2.005694,0.1933653 -2.6602477,0.5856695 -0.6545568,0.3923113 -0.9891486,0.9928745 -1.0037764,1.8016914 0.00505,0.5154541 0.1832539,0.95909417 0.5346029,1.33092152 0.3513472,0.37182824 0.8455222,0.5665193 1.4825252,0.58407377 0.37289,-7.9813e-4 0.712269,-0.06622711 1.018139,-0.19628712 0.305864,-0.13005989 0.56226,-0.31996338 0.76919,-0.56971101 l 0.0383,0 L 12.907179,0 14.656208,0 c -0.03777,-0.1768709 -0.06437,-0.39762712 -0.07979,-0.66226931 -0.01543,-0.26464087 -0.02288,-0.54603849 -0.02234,-0.84419369 z m -1.876696,1.4170966 c -4e-6,0.1170295 -0.01277,0.2276736 -0.0383,0.3319325 -0.06836,0.202938 -0.193366,0.3715637 -0.375021,0.5058776 -0.181662,0.1343168 -0.392843,0.2040014 -0.633544,0.209054 -0.221823,2.67e-4 -0.403747,-0.060906 -0.545774,-0.1835205 -0.142031,-0.1226113 -0.215439,-0.3082592 -0.220224,-0.5569444 0.0117,-0.364911 0.186178,-0.6213074 0.523432,-0.7691901 0.337249,-0.1478773 0.767059,-0.2191575 1.28943,-0.2138408 z"
     style="font-size:12.76679992999999900px;font-variant:normal;font-weight:600;writing-mode:lr-tb;fill:#ffffff;fill-opacity:1;fill-rule:nonzero;stroke:none;font-family:Myriad Pro;-inkscape-font-specification:MyriadPro-Semibold"
     id="path3099" /><path
     d="m 18.013917,0 0,-4.8130216 1.238364,0 0,-1.4298632 -1.251131,0 0,-0.3191659 c -0.0021,-0.3143715 0.06915,-0.5760874 0.213842,-0.7851483 0.144685,-0.2090462 0.375548,-0.3175624 0.692589,-0.325549 0.127397,5.396e-4 0.242829,0.00905 0.346295,0.025533 0.103459,0.016498 0.196549,0.037776 0.279271,0.063833 l 0.0766,-1.4936964 c -0.133522,-0.033237 -0.284594,-0.062494 -0.453215,-0.087771 -0.16863,-0.025258 -0.358002,-0.038557 -0.568115,-0.039896 -0.292573,-0.00265 -0.591524,0.044161 -0.896857,0.140433 -0.305338,0.096291 -0.585139,0.258001 -0.839406,0.4851321 -0.272622,0.2635863 -0.471037,0.58222 -0.595245,0.9559019 -0.124209,0.3736973 -0.185383,0.7529723 -0.18352,1.1378263 l 0,0.2425661 -0.829831,0 0,1.4298632 0.829831,0 0,4.8130216 z"
     style="font-size:12.76679992999999900px;font-variant:normal;font-weight:600;writing-mode:lr-tb;fill:#ffffff;fill-opacity:1;fill-rule:nonzero;stroke:none;font-family:Myriad Pro;-inkscape-font-specification:MyriadPro-Semibold"
     id="path3101" /><path
     d="m 25.290949,-2.5022606 c 0.01382,-0.072608 0.02765,-0.1763367 0.04149,-0.311187 0.01382,-0.1348447 0.02127,-0.2864483 0.02234,-0.4548111 0.0101,-0.8056239 -0.201612,-1.5178951 -0.63514,-2.1368159 -0.433539,-0.61891 -1.149534,-0.9449907 -2.147986,-0.9782432 -1.080911,0.039902 -1.877762,0.3973677 -2.390553,1.0723974 -0.512794,0.6750403 -0.767062,1.4282711 -0.762806,2.2596945 0.0064,0.9870225 0.296823,1.7609989 0.871323,2.32193175 0.574496,0.56093426 1.394752,0.84658748 2.460769,0.85696051 0.42289,2.6595e-4 0.825039,-0.03218258 1.206447,-0.0973457 0.381397,-0.06516317 0.73248,-0.16463641 1.053247,-0.29842001 L 24.75475,-1.5830628 c -0.259327,0.089368 -0.529022,0.1563927 -0.809085,0.2010745 -0.280073,0.044685 -0.584876,0.067026 -0.91441,0.067025 -0.466784,7.993e-4 -0.867337,-0.096546 -1.20166,-0.2920367 -0.334329,-0.1954873 -0.521041,-0.4939071 -0.560136,-0.8952604 z m -4.034257,-1.3277301 c 0.02128,-0.2760744 0.125536,-0.5505568 0.312783,-0.8234482 0.187241,-0.272882 0.483001,-0.4196981 0.887281,-0.4404487 0.436721,0.023145 0.731417,0.1747486 0.884089,0.4548117 0.152664,0.2800723 0.223944,0.5497671 0.213842,0.8090852 z"
     style="font-size:12.76679992999999900px;font-variant:normal;font-weight:600;writing-mode:lr-tb;fill:#ffffff;fill-opacity:1;fill-rule:nonzero;stroke:none;font-family:Myriad Pro;-inkscape-font-specification:MyriadPro-Semibold"
     id="path3103" /><path
     d="m 26.363432,0 1.940529,0 0,-3.6001912 c -5.35e-4,-0.090427 0.0037,-0.1776655 0.01277,-0.2617162 0.009,-0.084043 0.02606,-0.158515 0.05107,-0.223416 0.06941,-0.1867075 0.185911,-0.3526736 0.349486,-0.4978988 0.16357,-0.1452159 0.379006,-0.2218157 0.646311,-0.2297994 0.348153,0.00612 0.599762,0.1311286 0.754828,0.3750198 0.155056,0.2439001 0.231124,0.5699809 0.228203,0.9782436 l 0,3.4597582 1.940529,0 0,-3.6895577 c -0.01331,-0.9165333 -0.226082,-1.5952922 -0.638332,-2.0362785 -0.412262,-0.440975 -0.944204,-0.6601353 -1.595829,-0.6574816 -0.522373,0.016497 -0.942607,0.133524 -1.260706,0.3510823 -0.318105,0.2175704 -0.540457,0.4367308 -0.667056,0.6574819 l -0.0383,0 -0.08937,-0.8681312 -1.685196,0 c 0.0133,0.2800742 0.025,0.5848774 0.03511,0.9144106 0.01011,0.3295438 0.01543,0.6886049 0.01596,1.0771846 z"
     style="font-size:12.76679992999999900px;font-variant:normal;font-weight:600;writing-mode:lr-tb;fill:#ffffff;fill-opacity:1;fill-rule:nonzero;stroke:none;font-family:Myriad Pro;-inkscape-font-specification:MyriadPro-Semibold"
     id="path3105" /><path
     d="m 39.755726,-1.7617957 c -0.203741,0.084315 -0.450563,0.1518713 -0.740465,0.2026702 -0.289915,0.050802 -0.587803,0.076867 -0.893665,0.078196 -0.868401,-0.00931 -1.541309,-0.2619804 -2.018724,-0.7580191 -0.477422,-0.4960342 -0.719456,-1.1795805 -0.726102,-2.0506407 0.01808,-0.9564286 0.281927,-1.6702957 0.791531,-2.1416034 0.509598,-0.4712947 1.15644,-0.7064133 1.940529,-0.7053564 0.351343,0.00293 0.663593,0.035382 0.936751,0.097346 0.273147,0.061978 0.505606,0.1359183 0.697378,0.22182 l 0.408532,-1.5319963 c -0.17608,-0.099731 -0.446307,-0.1875017 -0.810681,-0.2633121 -0.364387,-0.075793 -0.80058,-0.1156887 -1.30858,-0.1196869 -1.335181,0.00639 -2.44375,0.3989658 -3.325709,1.1777221 -0.881963,0.7787714 -1.339433,1.9054259 -1.372413,3.3799668 0.0019,1.2521973 0.381136,2.2777826 1.137826,3.0767591 0.756687,0.79897876 1.879618,1.21176623 3.368796,1.23836369 0.522363,-0.005054 0.974514,-0.04601329 1.356455,-0.12287896 0.381929,-0.07686571 0.661731,-0.15931678 0.839407,-0.24735347 z"
     style="font-size:12.76679992999999900px;font-variant:normal;font-weight:600;writing-mode:lr-tb;fill:#ffffff;fill-opacity:1;fill-rule:nonzero;stroke:none;font-family:Myriad Pro;-inkscape-font-specification:MyriadPro-Semibold"
     id="path3107" /><path
     d="m 43.113447,0 0,-6.2428848 -1.940529,0 0,6.2428848 z m -0.957498,-8.9494115 c -0.316773,0.00613 -0.567318,0.099216 -0.751635,0.2792702 -0.18432,0.1800713 -0.278473,0.4104024 -0.282462,0.6909941 0.0037,0.2750224 0.09522,0.5037577 0.274482,0.6862066 0.179264,0.1824636 0.423957,0.2771493 0.734082,0.2840577 0.328473,-0.00691 0.584337,-0.1015942 0.767594,-0.2840579 0.183251,-0.182449 0.276341,-0.4111843 0.27927,-0.6862064 -0.009,-0.2805919 -0.102668,-0.5109231 -0.280866,-0.6909943 -0.178203,-0.1800538 -0.425025,-0.2731437 -0.740465,-0.27927 z"
     style="font-size:12.76679992999999900px;font-variant:normal;font-weight:600;writing-mode:lr-tb;fill:#ffffff;fill-opacity:1;fill-rule:nonzero;stroke:none;font-family:Myriad Pro;-inkscape-font-specification:MyriadPro-Semibold"
     id="path3109" /><path
     d="m 44.709321,-7.4046486 0,1.1617638 -0.829832,0 0,1.4298632 0.829832,0 0,2.5533271 c -1e-6,0.4393865 0.04468,0.8117463 0.134049,1.1170804 0.08937,0.30533642 0.223415,0.55003009 0.402149,0.73408176 0.161709,0.16197679 0.368103,0.29123876 0.619182,0.38778627 0.251075,0.09654756 0.534068,0.14601832 0.848981,0.14841243 0.271554,-0.00133 0.516779,-0.01782 0.735677,-0.04947062 0.218891,-0.03165081 0.390709,-0.07048265 0.515454,-0.11649565 L 47.952046,-1.506463 c -0.08538,0.018886 -0.16996,0.032184 -0.253737,0.039896 -0.08378,0.00771 -0.190705,0.011438 -0.320762,0.011171 -0.283263,0.00133 -0.482741,-0.087503 -0.598436,-0.2665034 -0.1157,-0.1789969 -0.171554,-0.4561391 -0.167562,-0.8314272 l 0,-2.2596945 1.391564,0 0,-1.4298632 -1.391564,0 0,-1.6851959 z"
     style="font-size:12.76679992999999900px;font-variant:normal;font-weight:600;writing-mode:lr-tb;fill:#ffffff;fill-opacity:1;fill-rule:nonzero;stroke:none;font-family:Myriad Pro;-inkscape-font-specification:MyriadPro-Semibold"
     id="path3111" /><path
     d="m 48.309411,-6.2428848 2.297994,5.71945274 c 0.03112,0.0755364 0.05186,0.13830573 0.06224,0.18830807 0.01037,0.050003 0.01516,0.0936222 0.01436,0.13085782 -2.69e-4,0.038832 -0.0093,0.0824512 -0.02713,0.13085783 -0.01782,0.04840675 -0.04282,0.09840942 -0.075,0.15000815 -0.09336,0.15692303 -0.213046,0.30586696 -0.359062,0.44683225 -0.14602,0.14096424 -0.294432,0.2516083 -0.445236,0.33193252 -0.148414,0.0832479 -0.29523,0.15293232 -0.440449,0.20905342 -0.145222,0.056119 -0.279271,0.097079 -0.402149,0.1228791 l 0.421299,1.6341294 c 0.248416,-0.021281 0.536729,-0.096816 0.864939,-0.2266078 0.328207,-0.1297966 0.661203,-0.339382 0.99899,-0.6287568 0.342834,-0.2888469 0.684873,-0.7388703 1.026118,-1.35007173 0.341237,-0.61120265 0.731151,-1.52720784 1.169743,-2.74801827 l 1.455396,-4.1108567 -2.068194,0 -0.778765,3.0639925 c -0.04548,0.1893747 -0.09176,0.3883212 -0.138838,0.5968403 -0.04708,0.2085242 -0.09017,0.4010874 -0.129262,0.5776902 l -0.05107,0 c -0.0399,-0.1712837 -0.08777,-0.3617192 -0.143625,-0.5713071 -0.05586,-0.2095828 -0.110116,-0.4064015 -0.162774,-0.5904567 l -0.931965,-3.0767592 z"
     style="font-size:12.76679992999999900px;font-variant:normal;font-weight:600;writing-mode:lr-tb;fill:#ffffff;fill-opacity:1;fill-rule:nonzero;stroke:none;font-family:Myriad Pro;-inkscape-font-specification:MyriadPro-Semibold"
     id="path3113" /></g>


<g
   transform="matrix(1,0,0,-1,164.34295,48.2109)"
   style="fill:#ffffff"
   id="text3007"><path
     d="m 0.84259795,-8.6047124 0,4.800255 c 0.007446,1.3596493 0.30852595,2.3586375 0.90323965,2.9969677 0.5947102,0.63833182 1.4383711,0.95430574 2.5309853,0.94792269 1.1325015,0.00266 2.0112707,-0.31863373 2.6363101,-0.96388117 C 7.5381585,-1.468694 7.8551964,-2.4538516 7.8642475,-3.7789241 l 0,-4.8257883 -1.9405286,0 0,4.940688 C 5.9215853,-2.900151 5.785408,-2.3341641 5.5151866,-1.9660619 5.2449541,-1.5979557 4.8534443,-1.4149675 4.3406561,-1.4170965 3.8456791,-1.4173612 3.4632123,-1.6051371 3.1932546,-1.9804246 2.9232905,-2.3557082 2.7865813,-2.9169076 2.7831266,-3.6640244 l 0,-4.940688 z"
     style="font-size:12.76679992999999900px;font-variant:normal;font-weight:600;writing-mode:lr-tb;fill:#ffffff;fill-opacity:1;fill-rule:nonzero;stroke:none;font-family:Myriad Pro;-inkscape-font-specification:MyriadPro-Semibold"
     id="path3116" /><path
     d="m 9.2814532,0 1.9405288,0 0,-3.6001912 c -5.35e-4,-0.090427 0.0037,-0.1776655 0.01277,-0.2617162 0.009,-0.084043 0.02606,-0.158515 0.05107,-0.223416 0.06942,-0.1867075 0.185911,-0.3526736 0.349487,-0.4978988 0.163569,-0.1452159 0.379006,-0.2218157 0.646311,-0.2297994 0.348152,0.00612 0.599761,0.1311286 0.754827,0.3750198 0.155057,0.2439001 0.231124,0.5699809 0.228203,0.9782436 l 0,3.4597582 1.940529,0 0,-3.6895577 c -0.0133,-0.9165333 -0.226082,-1.5952922 -0.638332,-2.0362785 -0.412261,-0.440975 -0.944204,-0.6601353 -1.595829,-0.6574816 -0.522372,0.016497 -0.942607,0.133524 -1.260706,0.3510823 -0.318105,0.2175704 -0.540457,0.4367308 -0.667056,0.6574819 l -0.0383,0 -0.08937,-0.8681312 -1.6851964,0 c 0.013298,0.2800742 0.025001,0.5848774 0.035108,0.9144106 0.010106,0.3295438 0.015426,0.6886049 0.015958,1.0771846 z"
     style="font-size:12.76679992999999900px;font-variant:normal;font-weight:600;writing-mode:lr-tb;fill:#ffffff;fill-opacity:1;fill-rule:nonzero;stroke:none;font-family:Myriad Pro;-inkscape-font-specification:MyriadPro-Semibold"
     id="path3118" /><path
     d="m 18.524592,0 0,-6.2428848 -1.940528,0 0,6.2428848 z m -0.957497,-8.9494115 c -0.316774,0.00613 -0.567319,0.099216 -0.751636,0.2792702 -0.184319,0.1800713 -0.278473,0.4104024 -0.282462,0.6909941 0.0037,0.2750224 0.09522,0.5037577 0.274483,0.6862066 0.179263,0.1824636 0.423957,0.2771493 0.734081,0.2840577 0.328473,-0.00691 0.584338,-0.1015942 0.767594,-0.2840579 0.183252,-0.182449 0.276342,-0.4111843 0.27927,-0.6862064 -0.009,-0.2805919 -0.102667,-0.5109231 -0.280866,-0.6909943 -0.178203,-0.1800538 -0.425024,-0.2731437 -0.740464,-0.27927 z"
     style="font-size:12.76679992999999900px;font-variant:normal;font-weight:600;writing-mode:lr-tb;fill:#ffffff;fill-opacity:1;fill-rule:nonzero;stroke:none;font-family:Myriad Pro;-inkscape-font-specification:MyriadPro-Semibold"
     id="path3120" /><path
     d="M 19.188499,-6.2428848 21.46096,0 l 1.940528,0 2.323528,-6.2428848 -2.042662,0 -0.804298,2.8980263 c -0.06942,0.2659745 -0.13166,0.5223708 -0.186712,0.7691896 -0.05506,0.2468239 -0.107722,0.496837 -0.157987,0.75004 l -0.0383,0 c -0.05001,-0.2476178 -0.1032,-0.4960351 -0.159583,-0.7452526 -0.05639,-0.2492124 -0.12235,-0.5072045 -0.197883,-0.773977 l -0.842598,-2.8980263 z"
     style="font-size:12.76679992999999900px;font-variant:normal;font-weight:600;writing-mode:lr-tb;fill:#ffffff;fill-opacity:1;fill-rule:nonzero;stroke:none;font-family:Myriad Pro;-inkscape-font-specification:MyriadPro-Semibold"
     id="path3122" /><path
     d="m 31.687264,-2.5022606 c 0.01382,-0.072608 0.02765,-0.1763367 0.04149,-0.311187 0.01382,-0.1348447 0.02127,-0.2864483 0.02234,-0.4548111 0.0101,-0.8056239 -0.201612,-1.5178951 -0.63514,-2.1368159 -0.433539,-0.61891 -1.149534,-0.9449907 -2.147987,-0.9782432 -1.080911,0.039902 -1.877761,0.3973677 -2.390552,1.0723974 -0.512794,0.6750403 -0.767063,1.4282711 -0.762807,2.2596945 0.0064,0.9870225 0.296824,1.7609989 0.871323,2.32193175 0.574497,0.56093426 1.394752,0.84658748 2.460769,0.85696051 0.422891,2.6595e-4 0.825039,-0.03218258 1.206447,-0.0973457 0.381398,-0.06516317 0.73248,-0.16463641 1.053248,-0.29842001 L 31.151065,-1.5830628 c -0.259328,0.089368 -0.529023,0.1563927 -0.809086,0.2010745 -0.280073,0.044685 -0.584876,0.067026 -0.91441,0.067025 -0.466783,7.993e-4 -0.867336,-0.096546 -1.201659,-0.2920367 -0.334329,-0.1954873 -0.521041,-0.4939071 -0.560136,-0.8952604 z m -4.034257,-1.3277301 c 0.02128,-0.2760744 0.125536,-0.5505568 0.312782,-0.8234482 0.187241,-0.272882 0.483002,-0.4196981 0.887282,-0.4404487 0.436721,0.023145 0.731417,0.1747486 0.884089,0.4548117 0.152663,0.2800723 0.223944,0.5497671 0.213841,0.8090852 z"
     style="font-size:12.76679992999999900px;font-variant:normal;font-weight:600;writing-mode:lr-tb;fill:#ffffff;fill-opacity:1;fill-rule:nonzero;stroke:none;font-family:Myriad Pro;-inkscape-font-specification:MyriadPro-Semibold"
     id="path3124" /><path
     d="m 32.759747,0 1.940528,0 0,-3.1661256 c -2e-6,-0.077129 0.0032,-0.1526644 0.0096,-0.2266078 0.0064,-0.073937 0.01596,-0.1430892 0.02872,-0.2074578 0.06649,-0.3034697 0.21437,-0.542312 0.443641,-0.7165275 0.229264,-0.1742069 0.52396,-0.2630413 0.884089,-0.2665035 0.107182,5.365e-4 0.2024,0.00586 0.285653,0.015958 0.08324,0.010112 0.162505,0.021814 0.237779,0.035108 l 0,-1.8256289 c -0.0673,-0.01276 -0.130596,-0.022336 -0.189904,-0.028725 -0.05931,-0.00638 -0.132192,-0.00957 -0.218628,-0.00957 -0.318372,-0.00319 -0.635942,0.098948 -0.95271,0.3063992 -0.316776,0.2074636 -0.560937,0.5393958 -0.732486,0.9957976 l -0.05107,0 -0.0766,-1.1489972 -1.659663,0 c 0.01888,0.2627857 0.03218,0.5574819 0.0399,0.8840893 0.0077,0.3266182 0.01144,0.7170642 0.01117,1.171339 z"
     style="font-size:12.76679992999999900px;font-variant:normal;font-weight:600;writing-mode:lr-tb;fill:#ffffff;fill-opacity:1;fill-rule:nonzero;stroke:none;font-family:Myriad Pro;-inkscape-font-specification:MyriadPro-Semibold"
     id="path3126" /><path
     d="m 36.947262,-0.30639925 c 0.239639,0.13032634 0.53274,0.23671486 0.879302,0.31916589 0.346559,0.08245099 0.725834,0.1250064 1.137826,0.12766635 0.894193,-0.0111708 1.566569,-0.20267012 2.017129,-0.5744986 C 41.43207,-0.80589322 41.657613,-1.2910249 41.65815,-1.8894621 41.656549,-2.3408136 41.5225,-2.7243443 41.256001,-3.0400552 40.989493,-3.35576 40.561811,-3.6148161 39.972954,-3.817224 39.595804,-3.9456844 39.33196,-4.06218 39.181423,-4.166711 39.03088,-4.2712336 38.958536,-4.3973039 38.96439,-4.5449223 c 0.0013,-0.1547906 0.06569,-0.2760736 0.193096,-0.3638493 0.127397,-0.087766 0.309854,-0.1324489 0.547369,-0.1340494 0.26783,0.00532 0.523694,0.045752 0.767594,0.1212828 0.243892,0.075541 0.439115,0.1542683 0.585669,0.2361829 l 0.331933,-1.3404967 c -0.194962,-0.099201 -0.443379,-0.1848441 -0.745253,-0.2569286 -0.301881,-0.072072 -0.636473,-0.1098399 -1.003776,-0.1133038 -0.781693,0.012241 -1.398214,0.207996 -1.849567,0.5872652 -0.451354,0.3792809 -0.681685,0.8686681 -0.690994,1.4681631 -0.0125,0.3750236 0.121017,0.7261057 0.400554,1.0532473 0.279534,0.3271481 0.741793,0.6016306 1.386775,0.8234481 0.350548,0.1157001 0.590986,0.2258123 0.721315,0.3303368 0.130323,0.1045289 0.192028,0.2369825 0.185117,0.3973615 0.0021,0.1609143 -0.06277,0.2859207 -0.194692,0.3750196 -0.131925,0.089102 -0.343638,0.1343169 -0.63514,0.1356458 -0.298688,-0.00558 -0.604555,-0.055055 -0.917602,-0.1484122 -0.31305,-0.093355 -0.564658,-0.1970834 -0.754827,-0.3111867 z"
     style="font-size:12.76679992999999900px;font-variant:normal;font-weight:600;writing-mode:lr-tb;fill:#ffffff;fill-opacity:1;fill-rule:nonzero;stroke:none;font-family:Myriad Pro;-inkscape-font-specification:MyriadPro-Semibold"
     id="path3128" /><path
     d="m 44.569013,0 0,-6.2428848 -1.940528,0 0,6.2428848 z m -0.957497,-8.9494115 c -0.316774,0.00613 -0.567319,0.099216 -0.751636,0.2792702 -0.184319,0.1800713 -0.278473,0.4104024 -0.282462,0.6909941 0.0037,0.2750224 0.09522,0.5037577 0.274483,0.6862066 0.179263,0.1824636 0.423957,0.2771493 0.734081,0.2840577 0.328473,-0.00691 0.584338,-0.1015942 0.767594,-0.2840579 0.183252,-0.182449 0.276342,-0.4111843 0.279271,-0.6862064 -0.009,-0.2805919 -0.102668,-0.5109231 -0.280866,-0.6909943 -0.178204,-0.1800538 -0.425025,-0.2731437 -0.740465,-0.27927 z"
     style="font-size:12.76679992999999900px;font-variant:normal;font-weight:600;writing-mode:lr-tb;fill:#ffffff;fill-opacity:1;fill-rule:nonzero;stroke:none;font-family:Myriad Pro;-inkscape-font-specification:MyriadPro-Semibold"
     id="path3130" /><path
     d="m 46.164883,-7.4046486 0,1.1617638 -0.829831,0 0,1.4298632 0.829831,0 0,2.5533271 c -1e-6,0.4393865 0.04468,0.8117463 0.13405,1.1170804 0.08937,0.30533642 0.223414,0.55003009 0.402149,0.73408176 0.161709,0.16197679 0.368102,0.29123876 0.619182,0.38778627 0.251074,0.09654756 0.534068,0.14601832 0.848981,0.14841243 0.271554,-0.00133 0.516779,-0.01782 0.735677,-0.04947062 0.218891,-0.03165081 0.390708,-0.07048265 0.515453,-0.11649565 L 49.407609,-1.506463 c -0.08538,0.018886 -0.16996,0.032184 -0.253737,0.039896 -0.08378,0.00771 -0.190706,0.011438 -0.320762,0.011171 -0.283263,0.00133 -0.482742,-0.087503 -0.598436,-0.2665034 -0.115701,-0.1789969 -0.171555,-0.4561391 -0.167562,-0.8314272 l 0,-2.2596945 1.391563,0 0,-1.4298632 -1.391563,0 0,-1.6851959 z"
     style="font-size:12.76679992999999900px;font-variant:normal;font-weight:600;writing-mode:lr-tb;fill:#ffffff;fill-opacity:1;fill-rule:nonzero;stroke:none;font-family:Myriad Pro;-inkscape-font-specification:MyriadPro-Semibold"
     id="path3132" /><path
     d="m 55.573952,-3.6895577 c 0.01622,-0.7606743 -0.179004,-1.3968777 -0.585669,-1.9086122 -0.406676,-0.5117232 -1.122138,-0.7776945 -2.146391,-0.7979145 -0.571043,0.00825 -1.06309,0.071553 -1.476142,0.1899038 -0.413055,0.1183633 -0.729561,0.2423059 -0.949518,0.3718281 l 0.357465,1.2511303 c 0.210649,-0.131385 0.469173,-0.2420291 0.775574,-0.3319325 0.306397,-0.089894 0.62237,-0.1367045 0.947922,-0.140433 0.466245,0.012506 0.775303,0.1055959 0.927177,0.2792703 0.151865,0.1736839 0.22155,0.3529486 0.209054,0.5377944 l 0,0.0766 c -1.118946,-0.00186 -2.005694,0.1933653 -2.660248,0.5856695 -0.654557,0.3923113 -0.989149,0.9928745 -1.003777,1.8016914 0.0051,0.5154541 0.183254,0.95909417 0.534603,1.33092152 0.351347,0.37182824 0.845522,0.5665193 1.482526,0.58407377 0.372889,-7.9813e-4 0.712269,-0.06622711 1.018139,-0.19628712 0.305863,-0.13005989 0.56226,-0.31996338 0.76919,-0.56971101 l 0.0383,0 L 53.927056,0 55.676085,0 c -0.03777,-0.1768709 -0.06437,-0.39762712 -0.07979,-0.66226931 -0.01543,-0.26464087 -0.02288,-0.54603849 -0.02234,-0.84419369 z m -1.876695,1.4170966 c -4e-6,0.1170295 -0.01277,0.2276736 -0.0383,0.3319325 -0.06836,0.202938 -0.193365,0.3715637 -0.37502,0.5058776 -0.181662,0.1343168 -0.392844,0.2040014 -0.633544,0.209054 -0.221823,2.67e-4 -0.403748,-0.060906 -0.545774,-0.1835205 -0.142031,-0.1226113 -0.215439,-0.3082592 -0.220224,-0.5569444 0.0117,-0.364911 0.186177,-0.6213074 0.523432,-0.7691901 0.337248,-0.1478773 0.767058,-0.2191575 1.28943,-0.2138408 z m -2.068195,-4.8257883 c 0.260118,-0.00664 0.470767,-0.095476 0.631948,-0.2665034 0.161176,-0.1710121 0.244159,-0.3843212 0.24895,-0.6399277 -0.0059,-0.2606438 -0.0899,-0.4734209 -0.252141,-0.6383318 -0.162246,-0.1648936 -0.367575,-0.2500044 -0.61599,-0.2553327 -0.261718,0.00533 -0.478751,0.090439 -0.651099,0.2553327 -0.172351,0.1649107 -0.261717,0.3776877 -0.268099,0.6383318 0.0059,0.2556065 0.09309,0.4689155 0.261716,0.6399275 0.168624,0.1710268 0.383529,0.2598612 0.644715,0.2665036 z m 2.69376,0 c 0.260115,-0.00664 0.470764,-0.095476 0.631948,-0.2665034 0.161173,-0.1710121 0.244157,-0.3843212 0.24895,-0.6399277 -0.0056,-0.2606438 -0.09017,-0.4734209 -0.253737,-0.6383318 -0.163578,-0.1648936 -0.372631,-0.2500044 -0.627161,-0.2553327 -0.266774,0.00533 -0.483275,0.090439 -0.649503,0.2553327 -0.166236,0.1649107 -0.251879,0.3776877 -0.256928,0.6383318 0.0056,0.2556065 0.09016,0.4689155 0.253737,0.6399275 0.163568,0.1710268 0.372622,0.2598612 0.627161,0.2665036 z"
     style="font-size:12.76679992999999900px;font-variant:normal;font-weight:600;writing-mode:lr-tb;fill:#ffffff;fill-opacity:1;fill-rule:nonzero;stroke:none;font-family:Myriad Pro;-inkscape-font-specification:MyriadPro-Semibold"
     id="path3134" /><path
     d="m 57.054978,-7.4046486 0,1.1617638 -0.829831,0 0,1.4298632 0.829831,0 0,2.5533271 c -10e-7,0.4393865 0.04468,0.8117463 0.134049,1.1170804 0.08937,0.30533642 0.223415,0.55003009 0.40215,0.73408176 0.161708,0.16197679 0.368102,0.29123876 0.619181,0.38778627 0.251075,0.09654756 0.534069,0.14601832 0.848982,0.14841243 0.271553,-0.00133 0.516779,-0.01782 0.735677,-0.04947062 0.21889,-0.03165081 0.390708,-0.07048265 0.515453,-0.11649565 L 60.297703,-1.506463 c -0.08538,0.018886 -0.16996,0.032184 -0.253737,0.039896 -0.08378,0.00771 -0.190705,0.011438 -0.320761,0.011171 -0.283263,0.00133 -0.482742,-0.087503 -0.598436,-0.2665034 -0.115701,-0.1789969 -0.171555,-0.4561391 -0.167562,-0.8314272 l 0,-2.2596945 1.391563,0 0,-1.4298632 -1.391563,0 0,-1.6851959 z"
     style="font-size:12.76679992999999900px;font-variant:normal;font-weight:600;writing-mode:lr-tb;fill:#ffffff;fill-opacity:1;fill-rule:nonzero;stroke:none;font-family:Myriad Pro;-inkscape-font-specification:MyriadPro-Semibold"
     id="path3136" /></g>


<g
   transform="matrix(1,0,0,-1,106.82885,35.4441)"
   style="fill:#ffffff"
   id="text3011"><path
     d="m 0.95749767,-8.6047124 0,8.6047124 1.12346393,0 0,-4.0342568 4.1619232,0 0,4.0342568 1.1234639,0 0,-8.6047124 -1.1234639,0 0,3.6001913 -4.1619232,0 0,-3.6001913 z"
     style="font-size:12.76679992999999900px;font-variant:normal;font-weight:300;writing-mode:lr-tb;fill:#ffffff;fill-opacity:1;fill-rule:nonzero;stroke:none;font-family:Myriad Pro;-inkscape-font-specification:MyriadPro-Light"
     id="path3139" /><path
     d="m 13.315705,-3.7916908 c 0.02021,-0.6409871 -0.135119,-1.2133574 -0.465983,-1.7171126 -0.330873,-0.5037442 -0.958565,-0.7697155 -1.883078,-0.7979146 -0.393907,0.0024 -0.767862,0.051871 -1.1218685,0.1484125 -0.3540097,0.096554 -0.6609406,0.2258156 -0.9207935,0.3877862 l 0.2553327,0.7532315 c 0.2207551,-0.1476092 0.471832,-0.2609131 0.7532315,-0.3399119 0.2813958,-0.078988 0.5707728,-0.1188837 0.8681308,-0.119687 0.611466,0.022347 1.003507,0.1946964 1.176127,0.5170486 0.172611,0.3223621 0.248679,0.6223778 0.228203,0.900048 l 0,0.1276663 c -1.199269,-0.00319 -2.11687,0.1915036 -2.7528057,0.5840738 -0.6359389,0.392577 -0.9567002,0.9638833 -0.9622849,1.7139206 5.315e-4,0.4649195 0.1590504,0.87238751 0.4755572,1.2224054 0.3165049,0.35001872 0.7878061,0.53407087 1.4139044,0.55215699 0.442574,-0.007979 0.824509,-0.10053733 1.145806,-0.27767432 0.32129,-0.17713672 0.569175,-0.39097766 0.743657,-0.64152344 l 0.0383,0 L 12.396507,0 13.405071,0 c -0.03166,-0.21251122 -0.05453,-0.44497017 -0.06862,-0.69737756 -0.0141,-0.252406 -0.02102,-0.51358984 -0.02074,-0.78355214 z m -1.085164,1.7107292 c 2.62e-4,0.051601 -0.0035,0.1079864 -0.01117,0.1691579 -0.0077,0.061175 -0.02102,0.1239446 -0.0399,0.1883079 -0.09044,0.2720903 -0.263848,0.5098686 -0.520241,0.7133357 -0.256399,0.20346907 -0.589395,0.31038957 -0.998989,0.32076178 -0.289379,0.001596 -0.534073,-0.0845784 -0.7340813,-0.25852456 C 9.7261503,-1.1218672 9.6218896,-1.3931579 9.6133803,-1.7617957 c 0.032447,-0.5846033 0.3154402,-0.9697299 0.8489807,-1.1553807 0.533536,-0.185645 1.122929,-0.2643725 1.76818,-0.2361826 z"
     style="font-size:12.76679992999999900px;font-variant:normal;font-weight:300;writing-mode:lr-tb;fill:#ffffff;fill-opacity:1;fill-rule:nonzero;stroke:none;font-family:Myriad Pro;-inkscape-font-specification:MyriadPro-Light"
     id="path3141" /><path
     d="m 14.771176,0 1.097931,0 0,-3.7150909 c -2.68e-4,-0.097076 0.0066,-0.1933577 0.02075,-0.2888455 0.01409,-0.09548 0.03697,-0.1821862 0.06862,-0.2601199 0.09309,-0.2925642 0.261181,-0.5500245 0.504282,-0.7723816 0.243095,-0.2223471 0.538855,-0.3393744 0.887281,-0.3510823 0.427945,0.00878 0.74977,0.1667695 0.965477,0.4739614 0.215698,0.3072018 0.323682,0.7109462 0.323953,1.2112345 l 0,3.7023243 1.097931,0 0,-3.817224 c 5.26e-4,-0.102395 0.009,-0.2008044 0.02553,-0.2952284 0.01648,-0.094416 0.03776,-0.1832502 0.06383,-0.2665036 0.10452,-0.276606 0.272082,-0.5117248 0.502686,-0.705357 0.23059,-0.193622 0.50986,-0.294691 0.83781,-0.3032072 0.446825,0.00426 0.781949,0.1712909 1.005373,0.5010904 0.223407,0.3298093 0.335115,0.796855 0.335124,1.4011383 l 0,3.4852915 1.097931,0 0,-3.6257245 c -0.03326,-1.0500509 -0.269971,-1.7649818 -0.710145,-2.1447948 -0.440191,-0.3798014 -0.884363,-0.5585341 -1.332517,-0.5361987 -0.290183,5.385e-4 -0.542855,0.037775 -0.758019,0.1117083 -0.215178,0.073946 -0.413593,0.1813985 -0.595244,0.3223573 -0.129003,0.094958 -0.254009,0.2082615 -0.37502,0.3399118 -0.121023,0.1316614 -0.230072,0.2864566 -0.327145,0.4643863 l -0.02553,0 c -0.137779,-0.3699609 -0.356939,-0.6673169 -0.657482,-0.8920688 -0.300552,-0.2247399 -0.660145,-0.3401715 -1.07878,-0.3462949 -0.512265,0.010645 -0.923988,0.1266088 -1.235172,0.3478909 -0.311189,0.2212939 -0.550563,0.4840736 -0.718123,0.7883397 l -0.0383,0 -0.05107,-1.0085642 -0.983031,0 c 0.0133,0.252413 0.025,0.5135968 0.03511,0.7835522 0.01011,0.2699661 0.01543,0.5662582 0.01596,0.888877 z"
     style="font-size:12.76679992999999900px;font-variant:normal;font-weight:300;writing-mode:lr-tb;fill:#ffffff;fill-opacity:1;fill-rule:nonzero;stroke:none;font-family:Myriad Pro;-inkscape-font-specification:MyriadPro-Light"
     id="path3143" /><path
     d="m 25.227186,-1.5958294 c -5.33e-4,0.2803353 -0.0059,0.5622649 -0.01596,0.84578956 C 25.201119,-0.46651371 25.189417,-0.21650068 25.176119,0 l 0.957498,0 0.06383,-1.0085642 0.02553,0 c 0.237511,0.39975576 0.531675,0.69179217 0.882494,0.87611007 0.350813,0.18431817 0.750302,0.27528045 1.198468,0.27288712 0.719182,2.6594e-4 1.355386,-0.27474842 1.908612,-0.82504392 0.553214,-0.55029417 0.844719,-1.37746487 0.874514,-2.48151467 -0.01251,-0.9463229 -0.255605,-1.7027454 -0.729294,-2.2692697 -0.473701,-0.5665134 -1.102989,-0.856954 -1.887866,-0.8713227 -0.4987,0.00373 -0.924786,0.1047991 -1.278259,0.3032078 -0.353479,0.1984207 -0.629557,0.4718392 -0.828236,0.8202562 l -0.02553,0 0,-3.8810572 -1.110697,0 z m 1.110697,-1.9788286 c 0.0021,-0.1766012 0.0234,-0.3340562 0.06383,-0.4723655 0.124207,-0.4260819 0.341771,-0.7612058 0.652694,-1.0053727 0.310918,-0.2441568 0.659341,-0.3686313 1.045269,-0.3734239 0.60774,0.018358 1.067871,0.246561 1.380392,0.6846111 0.312511,0.4380596 0.469434,0.9758535 0.47077,1.6133833 -0.004,0.7189235 -0.168366,1.2918256 -0.493112,1.718708 -0.324756,0.42688529 -0.78595,0.6455138 -1.383584,0.6558862 -0.414918,-0.006117 -0.772384,-0.12793149 -1.072397,-0.365445 -0.300018,-0.2375113 -0.504284,-0.5540172 -0.612798,-0.9495185 -0.03618,-0.1297918 -0.0532,-0.2659691 -0.05107,-0.4085323 z"
     style="font-size:12.76679992999999900px;font-variant:normal;font-weight:300;writing-mode:lr-tb;fill:#ffffff;fill-opacity:1;fill-rule:nonzero;stroke:none;font-family:Myriad Pro;-inkscape-font-specification:MyriadPro-Light"
     id="path3145" /><path
     d="m 37.444945,-6.1790516 -1.123464,0 0,3.7789241 c -2.71e-4,0.1093163 -0.0093,0.213045 -0.02713,0.3111865 -0.01783,0.098146 -0.04283,0.1859162 -0.075,0.2633121 -0.104,0.2665049 -0.282201,0.5026874 -0.534603,0.7085481 -0.252411,0.20586294 -0.567853,0.3143793 -0.946327,0.3255494 -0.4987,-0.009042 -0.854569,-0.19203047 -1.06761,-0.5489653 -0.213046,-0.3569322 -0.316774,-0.8335528 -0.311187,-1.4298632 l 0,-3.4086917 -1.123463,0 0,3.6129579 c 0.02819,1.0567063 0.262246,1.77748847 0.702165,2.16234857 0.439914,0.3848609 0.916535,0.56625342 1.429863,0.54417812 0.547898,-0.0167565 0.990474,-0.14601856 1.32773,-0.38778665 0.337247,-0.24176759 0.575557,-0.49550419 0.714931,-0.76121054 l 0.02553,0 L 36.500214,0 37.496011,0 c -0.03618,-0.48300377 -0.0532,-1.0489907 -0.05107,-1.6979625 z"
     style="font-size:12.76679992999999900px;font-variant:normal;font-weight:300;writing-mode:lr-tb;fill:#ffffff;fill-opacity:1;fill-rule:nonzero;stroke:none;font-family:Myriad Pro;-inkscape-font-specification:MyriadPro-Light"
     id="path3147" /><path
     d="m 39.05363,0 1.123464,0 0,-3.293792 c -2e-6,-0.090427 0.0032,-0.1808575 0.0096,-0.2712914 0.0064,-0.090427 0.01596,-0.1744735 0.02873,-0.2521406 0.08032,-0.4282101 0.251607,-0.7718451 0.513857,-1.030906 0.262245,-0.2590513 0.593114,-0.3920369 0.992606,-0.3989572 0.0758,-5.267e-4 0.144419,5.372e-4 0.205862,0.00319 0.06144,0.00267 0.120481,0.010112 0.177137,0.022342 l 0,-1.0596308 c -0.05027,-0.00664 -0.09974,-0.012495 -0.148412,-0.017554 -0.04868,-0.00505 -0.101339,-0.00771 -0.157987,-0.00798 -0.383801,0.00453 -0.730095,0.1263429 -1.038885,0.3654453 -0.308795,0.2391142 -0.536999,0.5683866 -0.684611,0.9878181 l -0.0383,0 -0.05107,-1.225597 -0.983031,0 c 0.01888,0.2861912 0.03218,0.5883346 0.0399,0.9064311 0.0077,0.318107 0.01144,0.6585503 0.01117,1.0213309 z"
     style="font-size:12.76679992999999900px;font-variant:normal;font-weight:300;writing-mode:lr-tb;fill:#ffffff;fill-opacity:1;fill-rule:nonzero;stroke:none;font-family:Myriad Pro;-inkscape-font-specification:MyriadPro-Light"
     id="path3149" /><path
     d="m 47.990465,-4.4938557 c -2.72e-4,-0.3670359 0.0035,-0.6862014 0.01117,-0.9574977 0.0077,-0.2712853 0.02101,-0.5138512 0.0399,-0.7276982 l -0.995797,0 -0.0383,0.9319644 -0.02553,0 c -0.136183,-0.2675619 -0.358535,-0.5080001 -0.667058,-0.7213151 -0.308531,-0.2133031 -0.728765,-0.3260749 -1.260704,-0.3383157 -0.742064,0.00533 -1.386778,0.2883191 -1.934146,0.8489811 -0.54737,0.5606729 -0.834619,1.367098 -0.861748,2.4192776 0.01383,0.8739847 0.260652,1.5899794 0.740465,2.14798628 0.479811,0.55800866 1.109631,0.84632162 1.889462,0.86493975 0.480075,-0.0071811 0.885948,-0.10771834 1.217618,-0.30161186 0.331662,-0.19389287 0.581143,-0.4380545 0.748444,-0.73248567 l 0.02553,0 0,0.67663173 C 46.868591,0.3944354 46.680284,0.95244318 46.314844,1.2910259 45.949395,1.6296061 45.473838,1.7950403 44.888172,1.787329 44.503043,1.7833377 44.156216,1.733867 43.847691,1.6389167 43.539163,1.5439632 43.281702,1.4274678 43.07531,1.2894302 l -0.280866,0.8681312 c 0.257193,0.1664959 0.569444,0.2930982 0.936752,0.3798074 0.367304,0.086704 0.740196,0.1303235 1.118676,0.130858 0.39656,0.00346 0.793921,-0.051335 1.192085,-0.1643703 0.398154,-0.1130404 0.754024,-0.3050717 1.06761,-0.5760945 0.293627,-0.2688993 0.513851,-0.6311524 0.660673,-1.08676036 0.14681,-0.45560967 0.220219,-1.03808668 0.220225,-1.74743276 z m -1.123464,1.8639288 c 2.61e-4,0.096816 -0.0067,0.1968211 -0.02075,0.3000157 -0.0141,0.1031993 -0.03697,0.2032046 -0.06862,0.3000161 -0.121554,0.3606592 -0.322096,0.6415249 -0.601628,0.842598 -0.27954,0.20107543 -0.598173,0.30320841 -0.955901,0.30639925 -0.601099,-0.0167555 -1.055378,-0.23538395 -1.362839,-0.65588605 -0.307465,-0.420499 -0.461728,-0.9423346 -0.46279,-1.5655085 0.0096,-0.722907 0.181923,-1.2910218 0.517049,-1.7043461 0.335121,-0.4133147 0.77557,-0.6239639 1.321346,-0.6319482 0.41571,0.00852 0.755621,0.1255438 1.019735,0.3510822 0.264105,0.2255487 0.447626,0.5085422 0.550562,0.8489815 0.025,0.070221 0.04202,0.1468205 0.05107,0.2297994 0.009,0.082987 0.01329,0.1723533 0.01277,0.2680994 z"
     style="font-size:12.76679992999999900px;font-variant:normal;font-weight:300;writing-mode:lr-tb;fill:#ffffff;fill-opacity:1;fill-rule:nonzero;stroke:none;font-family:Myriad Pro;-inkscape-font-specification:MyriadPro-Light"
     id="path3151" /></g>


</g><path
     d="m 981.76611,568.85933 0.22428,-458.29132"
     style="fill:#ffffff;stroke:#ffffff;stroke-width:5;stroke-linecap:butt;stroke-linejoin:miter;stroke-miterlimit:4;stroke-opacity:1;stroke-dasharray:none"
     id="path3015"
     inkscape:connector-curvature="0"
     sodipodi:nodetypes="cc" /></g><g
   transform="scale(1,-1)"
   style="font-size:32px;font-style:normal;font-weight:normal;line-height:125%;letter-spacing:0px;word-spacing:0px;fill:#ffffff;fill-opacity:1;stroke:none;font-family:Sans"
   id="text3041"><path
     d="m 252.36765,-36.989092 0.57599,1.695978 0.74399,0 -1.83997,-5.39193 -0.83199,0 -1.83998,5.39193 0.71999,0 0.55999,-1.695978 z m -1.76798,-0.543993 0.528,-1.55998 c 0.0553,-0.16466 0.10466,-0.329325 0.14799,-0.493993 0.0433,-0.16466 0.0847,-0.325325 0.124,-0.481994 l 0.016,0 c 0.0392,0.155502 0.0808,0.3145 0.125,0.476994 0.0442,0.162502 0.0958,0.331499 0.155,0.506993 l 0.53599,1.55198 z"
     style="font-size:8px;fill:#ffffff"
     id="path3029" /><path
     d="m 259.80139,-36.021104 c -0.14317,0.06883 -0.31484,0.123165 -0.515,0.162997 -0.20016,0.03983 -0.40983,0.06017 -0.62899,0.061 -0.65649,-0.0073 -1.16348,-0.202664 -1.52098,-0.585993 -0.35749,-0.383327 -0.53849,-0.910653 -0.54299,-1.581979 0.009,-0.712154 0.20133,-1.259814 0.57799,-1.642979 0.37666,-0.383157 0.88532,-0.576821 1.52598,-0.580993 0.225,0.0013 0.42899,0.02267 0.61199,0.064 0.183,0.04134 0.339,0.09467 0.468,0.159997 l 0.176,-0.567992 c -0.0923,-0.05199 -0.24567,-0.103994 -0.46,-0.155998 -0.21433,-0.05199 -0.48766,-0.07999 -0.81999,-0.084 -0.84882,0.01201 -1.52715,0.272001 -2.03497,0.77999 -0.50783,0.507997 -0.76816,1.191988 -0.78099,2.051973 0.0157,0.890991 0.26833,1.568981 0.75799,2.033974 0.48966,0.464994 1.12232,0.698991 1.89797,0.701991 0.33083,-0.0027 0.61916,-0.02933 0.86499,-0.08 0.24583,-0.05067 0.43216,-0.109332 0.559,-0.175998 z"
     style="font-size:8px;fill:#ffffff"
     id="path3031" /><path
     d="m 262.43404,-39.245063 c -0.5455,0.0048 -0.99849,0.185168 -1.35898,0.540993 -0.3605,0.355832 -0.5475,0.858159 -0.561,1.506981 0.0123,0.618493 0.19167,1.103486 0.538,1.454981 0.34632,0.351496 0.78565,0.530493 1.31798,0.536993 0.48632,0.0038 0.92365,-0.159831 1.31198,-0.490994 0.38833,-0.331161 0.59366,-0.852821 0.616,-1.564979 -0.008,-0.597157 -0.17984,-1.074817 -0.515,-1.432982 -0.33516,-0.358158 -0.78482,-0.541822 -1.34898,-0.550993 z m -0.016,0.527993 c 0.41232,0.02067 0.70965,0.185335 0.89199,0.493994 0.18233,0.308665 0.27166,0.637328 0.26799,0.985987 -0.007,0.444163 -0.119,0.803824 -0.33599,1.078986 -0.217,0.275164 -0.497,0.416829 -0.83999,0.424995 -0.34966,-0.009 -0.63033,-0.150998 -0.84199,-0.425995 -0.21166,-0.274995 -0.32033,-0.62899 -0.326,-1.061986 -0.002,-0.380826 0.0922,-0.721155 0.283,-1.020987 0.19083,-0.299826 0.49116,-0.458157 0.90099,-0.474994 z"
     style="font-size:8px;fill:#ffffff"
     id="path3033" /><path
     d="m 266.82466,-39.245063 c -0.54549,0.0048 -0.99848,0.185168 -1.35898,0.540993 -0.36049,0.355832 -0.54749,0.858159 -0.56099,1.506981 0.0123,0.618493 0.19166,1.103486 0.53799,1.454981 0.34633,0.351496 0.78566,0.530493 1.31798,0.536993 0.48633,0.0038 0.92366,-0.159831 1.31199,-0.490994 0.38832,-0.331161 0.59365,-0.852821 0.61599,-1.564979 -0.008,-0.597157 -0.17983,-1.074817 -0.51499,-1.432982 -0.33517,-0.358158 -0.78483,-0.541822 -1.34899,-0.550993 z m -0.016,0.527993 c 0.41233,0.02067 0.70966,0.185335 0.89199,0.493994 0.18233,0.308665 0.27166,0.637328 0.268,0.985987 -0.007,0.444163 -0.119,0.803824 -0.336,1.078986 -0.217,0.275164 -0.49699,0.416829 -0.83999,0.424995 -0.34966,-0.009 -0.63032,-0.150998 -0.84198,-0.425995 -0.21167,-0.274995 -0.32034,-0.62899 -0.326,-1.061986 -0.002,-0.380826 0.0922,-0.721155 0.283,-1.020987 0.19083,-0.299826 0.49115,-0.458157 0.90098,-0.474994 z"
     style="font-size:8px;fill:#ffffff"
     id="path3035" /><path
     d="m 269.57531,-33.709134 0.69599,0 0,-2.103973 0.016,0 c 0.11916,0.193331 0.28283,0.342662 0.49099,0.447994 0.20817,0.105332 0.44183,0.158665 0.701,0.159998 0.47265,3.33e-4 0.88131,-0.172331 1.22598,-0.517993 0.34466,-0.345662 0.52532,-0.866321 0.54199,-1.56198 -0.01,-0.592657 -0.16633,-1.065317 -0.46999,-1.417982 -0.30367,-0.352658 -0.69633,-0.533323 -1.17799,-0.541993 -0.31633,0.0015 -0.58966,0.0665 -0.81999,0.194998 -0.23033,0.128502 -0.41566,0.311499 -0.55599,0.548993 l -0.016,0 -0.04,-0.663992 -0.62399,0 c 0.008,0.182668 0.0157,0.377332 0.022,0.583993 0.006,0.206667 0.01,0.43333 0.01,0.679991 z m 0.69599,-3.831951 c 5e-4,-0.04466 0.005,-0.09133 0.015,-0.139998 0.01,-0.04866 0.0205,-0.09533 0.033,-0.139998 0.0703,-0.266994 0.20366,-0.476991 0.4,-0.629992 0.19632,-0.152995 0.41765,-0.230994 0.66399,-0.233997 0.37349,0.01167 0.65849,0.154334 0.85499,0.427994 0.19649,0.273666 0.29549,0.608328 0.29699,1.003988 -0.002,0.450829 -0.1055,0.811157 -0.30899,1.080986 -0.2035,0.26983 -0.4925,0.408161 -0.86699,0.414994 -0.2565,-0.0038 -0.4795,-0.08017 -0.66899,-0.228997 -0.1895,-0.14883 -0.3185,-0.347161 -0.387,-0.594992 -0.0227,-0.088 -0.0333,-0.183996 -0.032,-0.287996 z"
     style="font-size:8px;fill:#ffffff"
     id="path3037" /><path
     d="m 277.23415,-37.10109 c 0.008,-0.03966 0.014,-0.08633 0.018,-0.139999 0.004,-0.05366 0.006,-0.11633 0.006,-0.187997 0.004,-0.246563 -0.0403,-0.508979 -0.13214,-0.787249 -0.0919,-0.278265 -0.25447,-0.516978 -0.4877,-0.716139 -0.23323,-0.199155 -0.55995,-0.303351 -0.98013,-0.312589 -0.56917,0.01367 -1.01283,0.214334 -1.33099,0.601992 -0.31816,0.387665 -0.47983,0.880325 -0.48499,1.477981 0.005,0.592661 0.17316,1.065321 0.50499,1.417982 0.33183,0.352662 0.79816,0.533326 1.39898,0.541993 0.308,-0.0033 0.56999,-0.03067 0.78599,-0.082 0.216,-0.05133 0.386,-0.106665 0.51,-0.165998 l -0.128,-0.503993 c -0.12517,0.05733 -0.27283,0.104666 -0.443,0.141998 -0.17016,0.03733 -0.37983,0.05667 -0.62899,0.058 -0.36583,0.0035 -0.67416,-0.101498 -0.92499,-0.314996 -0.25083,-0.213496 -0.38516,-0.556491 -0.40299,-1.028986 z m -2.71197,-0.503994 c 0.0245,-0.260827 0.1215,-0.511157 0.291,-0.75099 0.16949,-0.239827 0.43249,-0.368159 0.78899,-0.384995 0.38766,0.01984 0.65032,0.154168 0.78799,0.402994 0.13766,0.248833 0.20032,0.493163 0.18799,0.732991 z"
     style="font-size:8px;fill:#ffffff"
     id="path3039" /><path
     d="m 278.13781,-35.293114 0.70399,0 0,-2.063973 c 0,-0.05666 0.002,-0.11333 0.006,-0.169998 0.004,-0.05666 0.01,-0.10933 0.018,-0.157998 0.0503,-0.268327 0.15766,-0.483658 0.322,-0.645992 0.16433,-0.162328 0.37166,-0.24566 0.62199,-0.249996 0.0475,-3.3e-4 0.0905,3.36e-4 0.129,0.002 0.0385,0.0017 0.0755,0.0063 0.111,0.014 l 0,-0.663991 c -0.0315,-0.0042 -0.0625,-0.0078 -0.093,-0.011 -0.0305,-0.0032 -0.0635,-0.0048 -0.099,-0.005 -0.2405,0.0028 -0.4575,0.07917 -0.65099,0.228997 -0.1935,0.149835 -0.3365,0.356166 -0.429,0.618992 l -0.024,0 -0.032,-0.76799 -0.61599,0 c 0.0118,0.179335 0.0202,0.368666 0.025,0.567993 0.005,0.199334 0.007,0.412664 0.007,0.639992 z"
     style="font-size:8px;fill:#ffffff"
     id="path3041" /><path
     d="m 283.46715,-37.669083 c 0.0127,-0.401659 -0.0847,-0.760321 -0.292,-1.075986 -0.20733,-0.315659 -0.60066,-0.482324 -1.17998,-0.499994 -0.24683,0.0015 -0.48116,0.0325 -0.70299,0.093 -0.22183,0.0605 -0.41416,0.141502 -0.57699,0.242997 l 0.15999,0.471994 c 0.13833,-0.0925 0.29567,-0.163495 0.472,-0.212998 0.17633,-0.0495 0.35766,-0.0745 0.54399,-0.075 0.38316,0.014 0.62882,0.122002 0.73699,0.323996 0.10816,0.202 0.15583,0.389998 0.143,0.563993 l 0,0.08 c -0.75149,-0.002 -1.32649,0.120001 -1.72498,0.365995 -0.39849,0.245999 -0.59949,0.603994 -0.60299,1.073986 3.3e-4,0.291331 0.0997,0.546661 0.298,0.765991 0.19833,0.21933 0.49365,0.334662 0.88598,0.345995 0.27733,-0.005 0.51666,-0.063 0.71799,-0.173998 0.20133,-0.110998 0.35666,-0.244996 0.466,-0.401994 l 0.024,0 0.056,0.487993 0.63199,0 c -0.0198,-0.133165 -0.0342,-0.278829 -0.043,-0.436994 -0.009,-0.158164 -0.0132,-0.321829 -0.013,-0.490994 z m -0.67999,1.071986 c 1.6e-4,0.03233 -0.002,0.06767 -0.007,0.105999 -0.005,0.03833 -0.0132,0.07767 -0.025,0.117998 -0.0567,0.170499 -0.16533,0.319497 -0.326,0.446994 -0.16066,0.127499 -0.36933,0.194498 -0.62599,0.200998 -0.18133,10e-4 -0.33466,-0.053 -0.45999,-0.161998 -0.12534,-0.108998 -0.19067,-0.278996 -0.196,-0.509993 0.0203,-0.366328 0.19766,-0.607658 0.53199,-0.723991 0.33433,-0.11633 0.70366,-0.165663 1.10799,-0.147998 z"
     style="font-size:8px;fill:#ffffff"
     id="path3043" /><path
     d="m 284.76656,-39.885055 0,0.719991 -0.59999,0 0,0.535993 0.59999,0 0,2.111973 c -6.7e-4,0.228331 0.0207,0.427662 0.064,0.597992 0.0433,0.170332 0.11266,0.309663 0.20799,0.417995 0.0847,0.09283 0.19133,0.165164 0.32,0.216997 0.12866,0.05183 0.27533,0.07817 0.43999,0.079 0.1365,-10e-4 0.2575,-0.011 0.363,-0.03 0.1055,-0.019 0.1925,-0.041 0.261,-0.066 l -0.032,-0.535993 c -0.0505,0.016 -0.1075,0.028 -0.171,0.036 -0.0635,0.008 -0.1425,0.012 -0.237,0.012 -0.1935,-0.0013 -0.3305,-0.06667 -0.41099,-0.195998 -0.0805,-0.129331 -0.1195,-0.314661 -0.117,-0.555993 l 0,-2.087973 1.00799,0 0,-0.535993 -1.00799,0 0,-0.927988 z"
     style="font-size:8px;fill:#ffffff"
     id="path3045" /><path
     d="m 287.95118,-35.293114 0,-3.87195 -0.70399,0 0,3.87195 z m -0.352,-5.39993 c -0.13383,0.0033 -0.24016,0.04667 -0.319,0.129998 -0.0788,0.08334 -0.11916,0.18667 -0.12099,0.309996 0.002,0.123003 0.0403,0.225002 0.11599,0.305996 0.0757,0.081 0.17834,0.123003 0.308,0.125999 0.14116,-0.003 0.25083,-0.045 0.329,-0.125999 0.0782,-0.08099 0.11783,-0.182993 0.119,-0.305996 -0.002,-0.126826 -0.042,-0.231158 -0.12,-0.312996 -0.078,-0.08183 -0.182,-0.12416 -0.312,-0.126998 z"
     style="font-size:8px;fill:#ffffff"
     id="path3047" /><path
     d="m 290.76216,-39.245063 c -0.54549,0.0048 -0.99848,0.185168 -1.35898,0.540993 -0.36049,0.355832 -0.54749,0.858159 -0.56099,1.506981 0.0123,0.618493 0.19166,1.103486 0.53799,1.454981 0.34633,0.351496 0.78566,0.530493 1.31798,0.536993 0.48633,0.0038 0.92366,-0.159831 1.31199,-0.490994 0.38832,-0.331161 0.59365,-0.852821 0.61599,-1.564979 -0.008,-0.597157 -0.17983,-1.074817 -0.51499,-1.432982 -0.33517,-0.358158 -0.78483,-0.541822 -1.34899,-0.550993 z m -0.016,0.527993 c 0.41233,0.02067 0.70966,0.185335 0.89199,0.493994 0.18233,0.308665 0.27166,0.637328 0.268,0.985987 -0.007,0.444163 -0.119,0.803824 -0.336,1.078986 -0.217,0.275164 -0.49699,0.416829 -0.83999,0.424995 -0.34966,-0.009 -0.63032,-0.150998 -0.84198,-0.425995 -0.21167,-0.274995 -0.32034,-0.62899 -0.326,-1.061986 -0.002,-0.380826 0.0922,-0.721155 0.283,-1.020987 0.19083,-0.299826 0.49115,-0.458157 0.90098,-0.474994 z"
     style="font-size:8px;fill:#ffffff"
     id="path3049" /><path
     d="m 293.51281,-35.293114 0.70399,0 0,-2.32797 c 0,-0.06066 0.004,-0.119329 0.012,-0.175997 0.008,-0.05666 0.02,-0.10733 0.036,-0.151999 0.0668,-0.201494 0.18316,-0.370492 0.349,-0.506993 0.16583,-0.136495 0.36416,-0.207494 0.59499,-0.212997 0.32782,0.0087 0.56015,0.121335 0.69699,0.337995 0.13683,0.216667 0.20316,0.48533 0.199,0.80599 l 0,2.231971 0.70399,0 0,-2.30397 c -0.0235,-0.649655 -0.1845,-1.090316 -0.483,-1.321983 -0.2985,-0.23166 -0.59349,-0.340325 -0.88498,-0.325996 -0.32134,0.0075 -0.59067,0.0825 -0.80799,0.224997 -0.21734,0.142502 -0.37467,0.3075 -0.472,0.494994 l -0.016,0 -0.04,-0.639992 -0.62399,0 c 0.0118,0.158169 0.0202,0.321833 0.025,0.490994 0.005,0.169167 0.007,0.354832 0.007,0.556993 z"
     style="font-size:8px;fill:#ffffff"
     id="path3051" /><path
     d="m 299.21344,-39.165064 1.16799,3.87195 0.63999,0 0.62399,-1.839976 c 0.0682,-0.206329 0.13183,-0.413659 0.191,-0.621992 0.0592,-0.208328 0.11283,-0.427658 0.161,-0.657992 l 0.016,0 c 0.0478,0.2255 0.10017,0.440497 0.157,0.644992 0.0568,0.2045 0.11916,0.413497 0.187,0.626992 l 0.59199,1.847976 0.63999,0 1.24799,-3.87195 -0.69599,0 -0.552,1.943975 c -0.0643,0.227332 -0.12166,0.444662 -0.17199,0.651992 -0.0503,0.207331 -0.0917,0.408662 -0.124,0.603992 l -0.024,0 c -0.0438,-0.195163 -0.0942,-0.396827 -0.151,-0.604992 -0.0568,-0.208163 -0.12117,-0.427826 -0.193,-0.658992 l -0.59999,-1.935975 -0.59199,0 -0.63199,1.975975 c -0.0648,0.208499 -0.12717,0.415496 -0.187,0.620992 -0.0598,0.205498 -0.11217,0.406495 -0.157,0.602992 l -0.024,0 c -0.0367,-0.19933 -0.0793,-0.400661 -0.128,-0.603992 -0.0487,-0.20333 -0.0993,-0.41266 -0.152,-0.627992 l -0.51999,-1.967975 z"
     style="font-size:8px;fill:#ffffff"
     id="path3053" /><path
     d="m 306.24805,-35.293114 0,-3.87195 -0.70399,0 0,3.87195 z m -0.35199,-5.39993 c -0.13384,0.0033 -0.24017,0.04667 -0.319,0.129998 -0.0788,0.08334 -0.11917,0.18667 -0.121,0.309996 0.002,0.123003 0.0403,0.225002 0.116,0.305996 0.0757,0.081 0.17833,0.123003 0.308,0.125999 0.14116,-0.003 0.25082,-0.045 0.32899,-0.125999 0.0782,-0.08099 0.11783,-0.182993 0.119,-0.305996 -0.002,-0.126826 -0.042,-0.231158 -0.12,-0.312996 -0.078,-0.08183 -0.182,-0.12416 -0.31199,-0.126998 z"
     style="font-size:8px;fill:#ffffff"
     id="path3055" /><path
     d="m 307.57906,-39.885055 0,0.719991 -0.59999,0 0,0.535993 0.59999,0 0,2.111973 c -6.7e-4,0.228331 0.0207,0.427662 0.064,0.597992 0.0433,0.170332 0.11266,0.309663 0.20799,0.417995 0.0847,0.09283 0.19133,0.165164 0.32,0.216997 0.12866,0.05183 0.27533,0.07817 0.43999,0.079 0.1365,-10e-4 0.2575,-0.011 0.363,-0.03 0.1055,-0.019 0.1925,-0.041 0.261,-0.066 l -0.032,-0.535993 c -0.0505,0.016 -0.1075,0.028 -0.171,0.036 -0.0635,0.008 -0.1425,0.012 -0.237,0.012 -0.1935,-0.0013 -0.3305,-0.06667 -0.41099,-0.195998 -0.0805,-0.129331 -0.1195,-0.314661 -0.117,-0.555993 l 0,-2.087973 1.00799,0 0,-0.535993 -1.00799,0 0,-0.927988 z"
     style="font-size:8px;fill:#ffffff"
     id="path3057" /><path
     d="m 310.05969,-35.293114 0.70399,0 0,-2.33597 c -5.1e-4,-0.0635 0.002,-0.122496 0.009,-0.176997 0.006,-0.0545 0.0195,-0.107496 0.039,-0.158998 0.0703,-0.193495 0.18766,-0.356493 0.35199,-0.488994 0.16433,-0.132495 0.36166,-0.201494 0.59199,-0.206997 0.32783,0.0087 0.56016,0.121335 0.69699,0.337995 0.13683,0.216667 0.20317,0.48533 0.199,0.80599 l 0,2.223971 0.70399,0 0,-2.30397 c -0.0238,-0.649655 -0.18417,-1.090316 -0.48099,-1.321983 -0.29683,-0.23166 -0.58716,-0.340325 -0.87099,-0.325996 -0.1325,5.04e-4 -0.2595,0.0175 -0.38099,0.051 -0.12151,0.0335 -0.2345,0.0805 -0.339,0.140999 -0.1085,0.061 -0.2055,0.135002 -0.291,0.221997 -0.0855,0.087 -0.1565,0.181001 -0.21299,0.281996 l -0.016,0 0,-2.423969 -0.70399,0 z"
     style="font-size:8px;fill:#ffffff"
     id="path3059" /><path
     d="m 316.36031,-39.885055 0,0.719991 -0.59999,0 0,0.535993 0.59999,0 0,2.111973 c -6.7e-4,0.228331 0.0207,0.427662 0.064,0.597992 0.0433,0.170332 0.11266,0.309663 0.20799,0.417995 0.0847,0.09283 0.19133,0.165164 0.32,0.216997 0.12866,0.05183 0.27533,0.07817 0.43999,0.079 0.1365,-10e-4 0.2575,-0.011 0.363,-0.03 0.1055,-0.019 0.1925,-0.041 0.261,-0.066 l -0.032,-0.535993 c -0.0505,0.016 -0.1075,0.028 -0.171,0.036 -0.0635,0.008 -0.1425,0.012 -0.237,0.012 -0.1935,-0.0013 -0.3305,-0.06667 -0.41099,-0.195998 -0.0805,-0.129331 -0.1195,-0.314661 -0.117,-0.555993 l 0,-2.087973 1.00799,0 0,-0.535993 -1.00799,0 0,-0.927988 z"
     style="font-size:8px;fill:#ffffff"
     id="path3061" /><path
     d="m 318.84094,-35.293114 0.70399,0 0,-2.33597 c -5.1e-4,-0.0635 0.002,-0.122496 0.009,-0.176997 0.006,-0.0545 0.0195,-0.107496 0.039,-0.158998 0.0703,-0.193495 0.18766,-0.356493 0.35199,-0.488994 0.16433,-0.132495 0.36166,-0.201494 0.59199,-0.206997 0.32783,0.0087 0.56016,0.121335 0.69699,0.337995 0.13683,0.216667 0.20317,0.48533 0.199,0.80599 l 0,2.223971 0.70399,0 0,-2.30397 c -0.0238,-0.649655 -0.18417,-1.090316 -0.48099,-1.321983 -0.29683,-0.23166 -0.58716,-0.340325 -0.87099,-0.325996 -0.1325,5.04e-4 -0.2595,0.0175 -0.38099,0.051 -0.12151,0.0335 -0.2345,0.0805 -0.339,0.140999 -0.1085,0.061 -0.2055,0.135002 -0.291,0.221997 -0.0855,0.087 -0.1565,0.181001 -0.21299,0.281996 l -0.016,0 0,-2.423969 -0.70399,0 z"
     style="font-size:8px;fill:#ffffff"
     id="path3063" /><path
     d="m 326.3904,-37.10109 c 0.008,-0.03966 0.014,-0.08633 0.018,-0.139999 0.004,-0.05366 0.006,-0.11633 0.006,-0.187997 0.004,-0.246563 -0.0403,-0.508979 -0.13214,-0.787249 -0.0919,-0.278265 -0.25447,-0.516978 -0.4877,-0.716139 -0.23323,-0.199155 -0.55995,-0.303351 -0.98013,-0.312589 -0.56917,0.01367 -1.01283,0.214334 -1.33099,0.601992 -0.31816,0.387665 -0.47983,0.880325 -0.48499,1.477981 0.005,0.592661 0.17316,1.065321 0.50499,1.417982 0.33183,0.352662 0.79816,0.533326 1.39898,0.541993 0.308,-0.0033 0.56999,-0.03067 0.78599,-0.082 0.216,-0.05133 0.386,-0.106665 0.51,-0.165998 l -0.128,-0.503993 c -0.12517,0.05733 -0.27283,0.104666 -0.443,0.141998 -0.17016,0.03733 -0.37983,0.05667 -0.62899,0.058 -0.36583,0.0035 -0.67416,-0.101498 -0.92499,-0.314996 -0.25083,-0.213496 -0.38516,-0.556491 -0.40299,-1.028986 z m -2.71197,-0.503994 c 0.0245,-0.260827 0.1215,-0.511157 0.291,-0.75099 0.16949,-0.239827 0.43249,-0.368159 0.78899,-0.384995 0.38766,0.01984 0.65032,0.154168 0.78799,0.402994 0.13766,0.248833 0.20032,0.493163 0.18799,0.732991 z"
     style="font-size:8px;fill:#ffffff"
     id="path3065" /><path
     d="m 333.69312,-35.293114 0.688,0 -0.336,-5.39193 -0.88799,0 -0.95999,2.607966 c -0.12,0.339165 -0.228,0.658827 -0.32399,0.958988 -0.096,0.300164 -0.18,0.585827 -0.252,0.856989 l -0.016,0 c -0.0717,-0.279162 -0.15233,-0.568825 -0.242,-0.868989 -0.0897,-0.300161 -0.19033,-0.615823 -0.30199,-0.946988 l -0.91999,-2.607966 -0.88799,0 -0.37599,5.39193 0.66399,0 0.144,-2.31197 c 0.0243,-0.414325 0.0457,-0.829653 0.064,-1.245984 0.0183,-0.416324 0.0317,-0.795652 0.04,-1.137985 l 0.016,0 c 0.0762,0.319333 0.16583,0.652662 0.269,0.999987 0.10317,0.347332 0.21883,0.71266 0.347,1.095986 l 0.87999,2.567967 0.52799,0 0.95199,-2.615967 c 0.13532,-0.371825 0.25866,-0.728154 0.36999,-1.068986 0.11133,-0.340825 0.21466,-0.667154 0.31,-0.978987 l 0.016,0 c 0.001,0.3405 0.0108,0.717494 0.029,1.130985 0.0182,0.413498 0.0378,0.812492 0.059,1.196985 z"
     style="font-size:8px;fill:#ffffff"
     id="path3067" /><path
     d="m 335.45069,-40.685044 0,5.39193 0.70399,0 0,-5.39193 z"
     style="font-size:8px;fill:#ffffff"
     id="path3069" /><path
     d="m 338.38892,-35.293114 0.70399,0 0,-4.799938 1.64798,0 0,-0.591992 -3.99195,0 0,0.591992 1.63998,0 z"
     style="font-size:8px;fill:#ffffff"
     id="path3071" /><path
     d="m 347.70875,-35.293114 0.68799,0 -0.33599,-5.39193 -0.88799,0 -0.95999,2.607966 c -0.12,0.339165 -0.228,0.658827 -0.324,0.958988 -0.096,0.300164 -0.18,0.585827 -0.25199,0.856989 l -0.016,0 c -0.0717,-0.279162 -0.15234,-0.568825 -0.242,-0.868989 -0.0897,-0.300161 -0.19033,-0.615823 -0.302,-0.946988 l -0.91998,-2.607966 -0.88799,0 -0.376,5.39193 0.66399,0 0.144,-2.31197 c 0.0243,-0.414325 0.0457,-0.829653 0.064,-1.245984 0.0183,-0.416324 0.0317,-0.795652 0.04,-1.137985 l 0.016,0 c 0.0762,0.319333 0.16583,0.652662 0.269,0.999987 0.10316,0.347332 0.21883,0.71266 0.34699,1.095986 l 0.87999,2.567967 0.52799,0 0.95199,-2.615967 c 0.13533,-0.371825 0.25866,-0.728154 0.37,-1.068986 0.11132,-0.340825 0.21466,-0.667154 0.30999,-0.978987 l 0.016,0 c 0.001,0.3405 0.0108,0.717494 0.029,1.130985 0.0182,0.413498 0.0378,0.812492 0.059,1.196985 z"
     style="font-size:8px;fill:#ffffff"
     id="path3073" /><path
     d="m 352.56227,-37.10109 c 0.008,-0.03966 0.014,-0.08633 0.018,-0.139999 0.004,-0.05366 0.006,-0.11633 0.006,-0.187997 0.004,-0.246563 -0.0403,-0.508979 -0.13215,-0.787249 -0.0919,-0.278265 -0.25447,-0.516978 -0.48769,-0.716139 -0.23324,-0.199155 -0.55995,-0.303351 -0.98014,-0.312589 -0.56916,0.01367 -1.01282,0.214334 -1.33098,0.601992 -0.31817,0.387665 -0.47983,0.880325 -0.485,1.477981 0.005,0.592661 0.17317,1.065321 0.505,1.417982 0.33183,0.352662 0.79815,0.533326 1.39898,0.541993 0.30799,-0.0033 0.56999,-0.03067 0.78599,-0.082 0.21599,-0.05133 0.38599,-0.106665 0.50999,-0.165998 l -0.128,-0.503993 c -0.12516,0.05733 -0.27283,0.104666 -0.44299,0.141998 -0.17017,0.03733 -0.37983,0.05667 -0.62899,0.058 -0.36583,0.0035 -0.67416,-0.101498 -0.92499,-0.314996 -0.25083,-0.213496 -0.38516,-0.556491 -0.40299,-1.028986 z m -2.71196,-0.503994 c 0.0245,-0.260827 0.12149,-0.511157 0.29099,-0.75099 0.1695,-0.239827 0.43249,-0.368159 0.78899,-0.384995 0.38766,0.01984 0.65032,0.154168 0.78799,0.402994 0.13766,0.248833 0.20033,0.493163 0.188,0.732991 z"
     style="font-size:8px;fill:#ffffff"
     id="path3075" /><path
     d="m 356.1059,-40.973041 0,2.311971 -0.016,0 c -0.0882,-0.157328 -0.22983,-0.29266 -0.42499,-0.405995 -0.19517,-0.113328 -0.44283,-0.172661 -0.74299,-0.177998 -0.48233,0.0058 -0.88966,0.190168 -1.22199,0.552993 -0.33233,0.362832 -0.50366,0.869158 -0.51399,1.51898 0.0108,0.596494 0.17116,1.071487 0.48099,1.424982 0.30983,0.353496 0.70416,0.534493 1.18299,0.542993 0.31782,-0.0047 0.58815,-0.07733 0.81099,-0.217997 0.22282,-0.140665 0.38716,-0.321329 0.49299,-0.541993 l 0.024,0 0.032,0.671991 0.62399,0 c -0.008,-0.135665 -0.0157,-0.292329 -0.022,-0.469994 -0.006,-0.177663 -0.01,-0.354328 -0.01,-0.529993 l 0,-4.67994 z m 0,4.055948 c 1.6e-4,0.05567 -0.002,0.108334 -0.007,0.157998 -0.005,0.04967 -0.0132,0.09833 -0.025,0.145998 -0.0695,0.262498 -0.1985,0.467495 -0.38699,0.614992 -0.1885,0.147499 -0.4035,0.222498 -0.645,0.224997 -0.37666,-0.01067 -0.66132,-0.15133 -0.85398,-0.421994 -0.19267,-0.270662 -0.28933,-0.607324 -0.29,-1.009987 0.003,-0.432992 0.10516,-0.786987 0.307,-1.061987 0.20182,-0.274993 0.48615,-0.416991 0.85298,-0.425994 0.26683,0.0062 0.48916,0.08584 0.667,0.238997 0.17782,0.153168 0.29416,0.342832 0.34899,0.568993 0.0118,0.04534 0.0202,0.09467 0.025,0.147998 0.005,0.05334 0.007,0.102667 0.007,0.147998 z"
     style="font-size:8px;fill:#ffffff"
     id="path3077" /><path
     d="m 358.68555,-35.293114 0,-3.87195 -0.70399,0 0,3.87195 z m -0.35199,-5.39993 c -0.13384,0.0033 -0.24017,0.04667 -0.319,0.129998 -0.0788,0.08334 -0.11917,0.18667 -0.121,0.309996 0.002,0.123003 0.0403,0.225002 0.116,0.305996 0.0757,0.081 0.17833,0.123003 0.308,0.125999 0.14116,-0.003 0.25082,-0.045 0.32899,-0.125999 0.0782,-0.08099 0.11783,-0.182993 0.119,-0.305996 -0.002,-0.126826 -0.042,-0.231158 -0.12,-0.312996 -0.078,-0.08183 -0.182,-0.12416 -0.31199,-0.126998 z"
     style="font-size:8px;fill:#ffffff"
     id="path3079" /><path
     d="m 362.57653,-37.669083 c 0.0127,-0.401659 -0.0847,-0.760321 -0.292,-1.075986 -0.20733,-0.315659 -0.60066,-0.482324 -1.17999,-0.499994 -0.24683,0.0015 -0.48116,0.0325 -0.70299,0.093 -0.22183,0.0605 -0.41416,0.141502 -0.57699,0.242997 l 0.16,0.471994 c 0.13833,-0.0925 0.29566,-0.163495 0.47199,-0.212998 0.17633,-0.0495 0.35766,-0.0745 0.544,-0.075 0.38316,0.014 0.62882,0.122002 0.73699,0.323996 0.10816,0.202 0.15582,0.389998 0.14299,0.563993 l 0,0.08 c -0.75149,-0.002 -1.32648,0.120001 -1.72497,0.365995 -0.3985,0.245999 -0.5995,0.603994 -0.603,1.073986 3.4e-4,0.291331 0.0997,0.546661 0.298,0.765991 0.19833,0.21933 0.49366,0.334662 0.88599,0.345995 0.27733,-0.005 0.51666,-0.063 0.71799,-0.173998 0.20133,-0.110998 0.35666,-0.244996 0.46599,-0.401994 l 0.024,0 0.056,0.487993 0.63199,0 c -0.0198,-0.133165 -0.0342,-0.278829 -0.043,-0.436994 -0.009,-0.158164 -0.0132,-0.321829 -0.013,-0.490994 z m -0.68,1.071986 c 1.7e-4,0.03233 -0.002,0.06767 -0.007,0.105999 -0.005,0.03833 -0.0132,0.07767 -0.025,0.117998 -0.0567,0.170499 -0.16533,0.319497 -0.32599,0.446994 -0.16067,0.127499 -0.36933,0.194498 -0.62599,0.200998 -0.18134,10e-4 -0.33467,-0.053 -0.46,-0.161998 -0.12533,-0.108998 -0.19066,-0.278996 -0.19599,-0.509993 0.0203,-0.366328 0.19766,-0.607658 0.53199,-0.723991 0.33433,-0.11633 0.70365,-0.165663 1.10798,-0.147998 z"
     style="font-size:8px;fill:#ffffff"
     id="path3081" /><path
     d="m 363.73194,-35.293114 3.00796,0 0,-0.583992 -2.30397,0 0,-4.807938 -0.70399,0 z"
     style="font-size:8px;fill:#ffffff"
     id="path3083" /><path
     d="m 370.21715,-37.669083 c 0.0127,-0.401659 -0.0847,-0.760321 -0.292,-1.075986 -0.20733,-0.315659 -0.60066,-0.482324 -1.17998,-0.499994 -0.24683,0.0015 -0.48116,0.0325 -0.70299,0.093 -0.22183,0.0605 -0.41416,0.141502 -0.57699,0.242997 l 0.15999,0.471994 c 0.13833,-0.0925 0.29567,-0.163495 0.472,-0.212998 0.17633,-0.0495 0.35766,-0.0745 0.54399,-0.075 0.38316,0.014 0.62882,0.122002 0.73699,0.323996 0.10816,0.202 0.15583,0.389998 0.143,0.563993 l 0,0.08 c -0.75149,-0.002 -1.32649,0.120001 -1.72498,0.365995 -0.39849,0.245999 -0.59949,0.603994 -0.60299,1.073986 3.3e-4,0.291331 0.0997,0.546661 0.298,0.765991 0.19833,0.21933 0.49365,0.334662 0.88598,0.345995 0.27733,-0.005 0.51666,-0.063 0.71799,-0.173998 0.20133,-0.110998 0.35666,-0.244996 0.466,-0.401994 l 0.024,0 0.056,0.487993 0.63199,0 c -0.0198,-0.133165 -0.0342,-0.278829 -0.043,-0.436994 -0.009,-0.158164 -0.0132,-0.321829 -0.013,-0.490994 z m -0.67999,1.071986 c 1.6e-4,0.03233 -0.002,0.06767 -0.007,0.105999 -0.005,0.03833 -0.0132,0.07767 -0.025,0.117998 -0.0567,0.170499 -0.16533,0.319497 -0.326,0.446994 -0.16066,0.127499 -0.36933,0.194498 -0.62599,0.200998 -0.18133,10e-4 -0.33466,-0.053 -0.45999,-0.161998 -0.12534,-0.108998 -0.19067,-0.278996 -0.196,-0.509993 0.0203,-0.366328 0.19766,-0.607658 0.53199,-0.723991 0.33433,-0.11633 0.70366,-0.165663 1.10799,-0.147998 z"
     style="font-size:8px;fill:#ffffff"
     id="path3085" /><path
     d="m 371.35656,-36.293101 c -3.3e-4,0.175665 -0.004,0.35233 -0.01,0.529993 -0.006,0.177665 -0.0137,0.334329 -0.022,0.469994 l 0.59999,0 0.04,-0.631992 0.016,0 c 0.14883,0.250498 0.33316,0.433495 0.553,0.548993 0.21982,0.115499 0.47015,0.172498 0.75099,0.170998 0.45065,1.67e-4 0.84931,-0.172164 1.19598,-0.516993 0.34666,-0.344828 0.52932,-0.863155 0.54799,-1.55498 -0.008,-0.59299 -0.16017,-1.066984 -0.45699,-1.421982 -0.29683,-0.354992 -0.69116,-0.536989 -1.18299,-0.545993 -0.31249,0.0023 -0.57949,0.06567 -0.80099,0.189998 -0.22149,0.124335 -0.39449,0.295666 -0.51899,0.513993 l -0.016,0 0,-2.431969 -0.69599,0 z m 0.69599,-1.239984 c 0.001,-0.110663 0.0147,-0.209328 0.04,-0.295996 0.0778,-0.266994 0.21416,-0.476991 0.409,-0.629992 0.19482,-0.152995 0.41315,-0.230994 0.65499,-0.233997 0.38082,0.0115 0.66915,0.154501 0.86499,0.428995 0.19582,0.274499 0.29416,0.611494 0.29499,1.010987 -0.002,0.450495 -0.1055,0.80949 -0.30899,1.076985 -0.2035,0.267498 -0.4925,0.404496 -0.86699,0.410995 -0.26,-0.0038 -0.484,-0.08017 -0.67199,-0.228997 -0.188,-0.14883 -0.316,-0.347161 -0.384,-0.594992 -0.0227,-0.08133 -0.0333,-0.166663 -0.032,-0.255997 z"
     style="font-size:8px;fill:#ffffff"
     id="path3087" /></g>

<g
   transform="scale(1,-1)"
   style="font-size:32px;font-style:normal;font-weight:normal;line-height:125%;letter-spacing:0px;word-spacing:0px;fill:#ffffff;fill-opacity:1;stroke:none;font-family:Sans"
   id="text3001"><path
     d="m 255.01684,-50.159005 c -0.20428,0.08453 -0.45174,0.152266 -0.7424,0.203197 -0.29066,0.05093 -0.58933,0.07707 -0.89598,0.0784 -0.87066,-0.0093 -1.54532,-0.262661 -2.02398,-0.75999 -0.47866,-0.497324 -0.72132,-1.182648 -0.72799,-2.055973 0.0181,-0.958916 0.28266,-1.67464 0.79359,-2.147173 0.51092,-0.47252 1.15945,-0.70825 1.94558,-0.707191 0.35225,0.0029 0.66532,0.03547 0.93918,0.0976 0.27386,0.06214 0.50692,0.136272 0.6992,0.222397 l 0.40959,-1.53598 c -0.17654,-0.09999 -0.44747,-0.187989 -0.81279,-0.263997 -0.36533,-0.07599 -0.80266,-0.11599 -1.31198,-0.119998 -1.33866,0.0064 -2.45011,0.400003 -3.33436,1.180785 -0.88426,0.780796 -1.34292,1.910381 -1.37598,3.388756 0.002,1.255454 0.38213,2.283706 1.14078,3.08476 0.75866,0.801057 1.88451,1.214918 3.37756,1.241584 0.52372,-0.0051 0.97705,-0.04613 1.35998,-0.123198 0.38292,-0.07707 0.66345,-0.159731 0.84159,-0.247997 z"
     style="font-size:12.80000019000000000px;font-variant:normal;font-weight:bold;font-stretch:normal;font-family:Myriad Pro;-inkscape-font-specification:Myriad Pro Bold;fill:#ffffff"
     id="path3000" /><path
     d="m 258.48189,-48.392628 0,-6.259119 -1.94558,0 0,6.259119 z m -0.95999,-8.972684 c -0.3176,0.0061 -0.56879,0.09947 -0.75359,0.279996 -0.1848,0.18054 -0.2792,0.41147 -0.2832,0.692791 0.004,0.275738 0.0955,0.505068 0.2752,0.687991 0.17973,0.182938 0.42506,0.27787 0.73599,0.284797 0.32933,-0.0069 0.58586,-0.101859 0.76959,-0.284797 0.18373,-0.182923 0.27706,-0.412253 0.28,-0.687991 -0.009,-0.281321 -0.10294,-0.512252 -0.2816,-0.692791 -0.17867,-0.180522 -0.42613,-0.273854 -0.74239,-0.279996 z"
     style="font-size:12.80000019000000000px;font-variant:normal;font-weight:bold;font-stretch:normal;font-family:Myriad Pro;-inkscape-font-specification:Myriad Pro Bold;fill:#ffffff"
     id="path3002" /><path
     d="m 260.30511,-55.816532 0,1.164785 -0.83199,0 0,1.433581 0.83199,0 0,2.559967 c 0,0.44053 0.0448,0.813858 0.1344,1.119986 0.0896,0.30613 0.22399,0.55146 0.40319,0.735991 0.16213,0.162398 0.36906,0.291996 0.6208,0.388794 0.25172,0.0968 0.53545,0.146398 0.85118,0.148799 0.27226,-0.0013 0.51813,-0.01787 0.73759,-0.0496 0.21946,-0.03173 0.39173,-0.07067 0.5168,-0.116798 l -0.0128,-1.471981 c -0.0856,0.01893 -0.1704,0.03227 -0.2544,0.04 -0.084,0.0077 -0.1912,0.01147 -0.32159,0.0112 -0.284,0.0013 -0.484,-0.08773 -0.6,-0.267196 -0.116,-0.179463 -0.172,-0.457326 -0.16799,-0.83359 l 0,-2.265571 1.39518,0 0,-1.433581 -1.39518,0 0,-1.689578 z"
     style="font-size:12.80000019000000000px;font-variant:normal;font-weight:bold;font-stretch:normal;font-family:Myriad Pro;-inkscape-font-specification:Myriad Pro Bold;fill:#ffffff"
     id="path3004" /><path
     d="m 264.03232,-54.651747 2.30397,5.734326 c 0.0312,0.07573 0.052,0.138665 0.0624,0.188798 0.0104,0.05013 0.0152,0.09387 0.0144,0.131198 -2.7e-4,0.03893 -0.009,0.08267 -0.0272,0.131198 -0.0179,0.04853 -0.0429,0.09867 -0.0752,0.150398 -0.0936,0.157331 -0.2136,0.306663 -0.35999,0.447995 -0.1464,0.14133 -0.2952,0.252262 -0.4464,0.332795 -0.1488,0.08346 -0.29599,0.15333 -0.44159,0.209597 -0.1456,0.05627 -0.28,0.09733 -0.40319,0.123199 l 0.42239,1.638379 c 0.24906,-0.02134 0.53812,-0.09707 0.86719,-0.227197 0.32906,-0.130134 0.66292,-0.340265 1.00159,-0.630392 0.34372,-0.289598 0.68665,-0.740792 1.02878,-1.353583 0.34213,-0.612792 0.73306,-1.531179 1.17279,-2.755164 l 1.45918,-4.121547 -2.07357,0 -0.78079,3.07196 c -0.0456,0.189867 -0.092,0.389331 -0.1392,0.598393 -0.0472,0.209066 -0.0904,0.40213 -0.1296,0.579192 l -0.0512,0 c -0.04,-0.171729 -0.088,-0.36266 -0.144,-0.572793 -0.056,-0.210127 -0.1104,-0.407458 -0.1632,-0.591992 l -0.93438,-3.08476 z"
     style="font-size:12.80000019000000000px;font-variant:normal;font-weight:bold;font-stretch:normal;font-family:Myriad Pro;-inkscape-font-specification:Myriad Pro Bold;fill:#ffffff"
     id="path3006" /><path
     d="m 271.16752,-48.802222 c 0.25306,0.139998 0.59812,0.263196 1.03519,0.369595 0.43705,0.106398 0.90691,0.162398 1.40958,0.167998 1.18051,-0.02107 2.05463,-0.28613 2.62236,-0.79519 0.56772,-0.509059 0.84985,-1.135717 0.84639,-1.879976 0.002,-0.603989 -0.1784,-1.114382 -0.54239,-1.531181 -0.364,-0.41679 -0.92559,-0.763985 -1.68478,-1.041586 -0.55946,-0.201059 -0.96692,-0.387723 -1.22238,-0.559993 -0.25547,-0.172258 -0.38133,-0.390922 -0.3776,-0.655991 -5.3e-4,-0.225058 0.10293,-0.418122 0.3104,-0.579193 0.20746,-0.161058 0.52212,-0.245323 0.94399,-0.252797 0.41785,0.0067 0.77891,0.05414 1.08318,0.142399 0.30426,0.08827 0.54052,0.177338 0.70879,0.267196 l 0.4352,-1.56158 c -0.25414,-0.124523 -0.56187,-0.227455 -0.92319,-0.308796 -0.36134,-0.08132 -0.78746,-0.123456 -1.27838,-0.126398 -1.02079,0.01574 -1.81758,0.262672 -2.39037,0.74079 -0.5728,0.478135 -0.86399,1.09306 -0.87359,1.844777 0.01,0.623464 0.22719,1.142923 0.65279,1.55838 0.42559,0.415465 1.00158,0.749327 1.72798,1.001587 0.51385,0.173334 0.88451,0.351465 1.11198,0.534393 0.22746,0.182934 0.33893,0.405864 0.3344,0.668791 -0.001,0.285332 -0.11734,0.511462 -0.3488,0.678392 -0.23147,0.166932 -0.57173,0.252264 -1.02078,0.255996 -0.42213,-0.0056 -0.82266,-0.0616 -1.20159,-0.167998 -0.37893,-0.106397 -0.69946,-0.229595 -0.96159,-0.369595 z"
     style="font-size:12.80000019000000000px;font-variant:normal;font-weight:bold;font-stretch:normal;font-family:Myriad Pro;-inkscape-font-specification:Myriad Pro Bold;fill:#ffffff"
     id="path3008" /><path
     d="m 282.80346,-49.992607 c -0.14641,0.06453 -0.3112,0.114667 -0.4944,0.150398 -0.1832,0.03573 -0.3896,0.05387 -0.61919,0.0544 -0.48586,-0.0019 -0.89012,-0.15173 -1.21278,-0.449594 -0.32267,-0.297861 -0.49013,-0.732522 -0.5024,-1.303983 2.7e-4,-0.521056 0.15013,-0.941317 0.4496,-1.260784 0.29946,-0.319458 0.70852,-0.483723 1.22718,-0.492794 0.25493,0.0016 0.47146,0.0208 0.64959,0.0576 0.17813,0.03681 0.32426,0.0816 0.4384,0.134399 l 0.30719,-1.446382 c -0.20907,-0.07733 -0.44373,-0.137058 -0.70399,-0.179197 -0.26026,-0.04213 -0.52053,-0.06346 -0.78079,-0.064 -1.16852,0.02427 -2.05704,0.350134 -2.66556,0.977587 -0.60853,0.627463 -0.91466,1.410919 -0.91839,2.35037 0.0117,0.990122 0.31146,1.768245 0.89919,2.334369 0.58772,0.566127 1.39304,0.854656 2.41597,0.86559 0.37572,-0.0019 0.71545,-0.03013 1.01918,-0.0848 0.30373,-0.05467 0.54426,-0.124532 0.72159,-0.209598 z"
     style="font-size:12.80000019000000000px;font-variant:normal;font-weight:bold;font-stretch:normal;font-family:Myriad Pro;-inkscape-font-specification:Myriad Pro Bold;fill:#ffffff"
     id="path3010" /><path
     d="m 286.05689,-48.392628 0,-6.259119 -1.94558,0 0,6.259119 z m -0.95999,-8.972684 c -0.3176,0.0061 -0.56879,0.09947 -0.75359,0.279996 -0.1848,0.18054 -0.2792,0.41147 -0.28319,0.692791 0.004,0.275738 0.0955,0.505068 0.27519,0.687991 0.17973,0.182938 0.42506,0.27787 0.73599,0.284797 0.32933,-0.0069 0.58586,-0.101859 0.76959,-0.284797 0.18373,-0.182923 0.27706,-0.412253 0.28,-0.687991 -0.009,-0.281321 -0.10294,-0.512252 -0.2816,-0.692791 -0.17866,-0.180522 -0.42613,-0.273854 -0.74239,-0.279996 z"
     style="font-size:12.80000019000000000px;font-variant:normal;font-weight:bold;font-stretch:normal;font-family:Myriad Pro;-inkscape-font-specification:Myriad Pro Bold;fill:#ffffff"
     id="path3012" /><path
     d="m 293.14084,-50.901395 c 0.0139,-0.0728 0.0277,-0.176796 0.0416,-0.311997 0.0139,-0.135195 0.0213,-0.287193 0.0224,-0.455994 0.0101,-0.807718 -0.20213,-1.521842 -0.63679,-2.142372 -0.43467,-0.62052 -1.15252,-0.947448 -2.15357,-0.980787 -1.08372,0.04001 -1.88265,0.398401 -2.39677,1.075186 -0.51413,0.676796 -0.76906,1.431985 -0.76479,2.265571 0.006,0.989589 0.29759,1.765578 0.87359,2.32797 0.57599,0.562393 1.39838,0.848789 2.46717,0.859189 0.42399,2.66e-4 0.82718,-0.03227 1.20958,-0.0976 0.38239,-0.06533 0.73439,-0.165065 1.05599,-0.299196 l -0.256,-1.318383 c -0.26,0.0896 -0.5304,0.156799 -0.81119,0.201597 -0.2808,0.0448 -0.5864,0.0672 -0.91679,0.0672 -0.468,8.02e-4 -0.86959,-0.0968 -1.20478,-0.292796 -0.3352,-0.195996 -0.5224,-0.495191 -0.56159,-0.897588 z m -4.04474,-1.331183 c 0.0213,-0.276793 0.12586,-0.551989 0.31359,-0.82559 0.18773,-0.273592 0.48426,-0.420789 0.88959,-0.441594 0.43786,0.0232 0.73332,0.175203 0.88639,0.455994 0.15306,0.280801 0.22452,0.551197 0.2144,0.81119 z"
     style="font-size:12.80000019000000000px;font-variant:normal;font-weight:bold;font-stretch:normal;font-family:Myriad Pro;-inkscape-font-specification:Myriad Pro Bold;fill:#ffffff"
     id="path3014" /><path
     d="m 294.36131,-48.392628 1.94558,0 0,-3.609553 c -5.4e-4,-0.09066 0.004,-0.178128 0.0128,-0.262397 0.009,-0.08426 0.0261,-0.158927 0.0512,-0.223997 0.0696,-0.187193 0.18639,-0.353591 0.35039,-0.499194 0.164,-0.145593 0.38,-0.222392 0.648,-0.230397 0.34905,0.0061 0.60132,0.13147 0.75679,0.375995 0.15546,0.244535 0.23172,0.571464 0.22879,0.980788 l 0,3.468755 1.94558,0 0,-3.699152 c -0.0133,-0.918917 -0.22667,-1.599441 -0.63999,-2.041574 -0.41334,-0.442122 -0.94666,-0.661852 -1.59998,-0.659191 -0.52373,0.01654 -0.94506,0.133871 -1.26399,0.351995 -0.31893,0.218136 -0.54186,0.437866 -0.66879,0.659192 l -0.0384,0 -0.0896,-0.870389 -1.68957,0 c 0.0133,0.280802 0.0251,0.586398 0.0352,0.916788 0.0101,0.330401 0.0155,0.690396 0.016,1.079986 z"
     style="font-size:12.80000019000000000px;font-variant:normal;font-weight:bold;font-stretch:normal;font-family:Myriad Pro;-inkscape-font-specification:Myriad Pro Bold;fill:#ffffff"
     id="path3016" /><path
     d="m 306.32846,-49.992607 c -0.14641,0.06453 -0.3112,0.114667 -0.4944,0.150398 -0.1832,0.03573 -0.3896,0.05387 -0.61919,0.0544 -0.48586,-0.0019 -0.89012,-0.15173 -1.21278,-0.449594 -0.32267,-0.297861 -0.49013,-0.732522 -0.5024,-1.303983 2.7e-4,-0.521056 0.15013,-0.941317 0.4496,-1.260784 0.29946,-0.319458 0.70852,-0.483723 1.22718,-0.492794 0.25493,0.0016 0.47146,0.0208 0.64959,0.0576 0.17813,0.03681 0.32426,0.0816 0.4384,0.134399 l 0.30719,-1.446382 c -0.20907,-0.07733 -0.44373,-0.137058 -0.70399,-0.179197 -0.26026,-0.04213 -0.52053,-0.06346 -0.78079,-0.064 -1.16852,0.02427 -2.05704,0.350134 -2.66556,0.977587 -0.60853,0.627463 -0.91466,1.410919 -0.91839,2.35037 0.0117,0.990122 0.31146,1.768245 0.89919,2.334369 0.58772,0.566127 1.39304,0.854656 2.41597,0.86559 0.37572,-0.0019 0.71545,-0.03013 1.01918,-0.0848 0.30373,-0.05467 0.54426,-0.124532 0.72159,-0.209598 z"
     style="font-size:12.80000019000000000px;font-variant:normal;font-weight:bold;font-stretch:normal;font-family:Myriad Pro;-inkscape-font-specification:Myriad Pro Bold;fill:#ffffff"
     id="path3018" /><path
     d="m 313.16584,-50.901395 c 0.0139,-0.0728 0.0277,-0.176796 0.0416,-0.311997 0.0139,-0.135195 0.0213,-0.287193 0.0224,-0.455994 0.0101,-0.807718 -0.20213,-1.521842 -0.63679,-2.142372 -0.43466,-0.62052 -1.15252,-0.947448 -2.15357,-0.980787 -1.08372,0.04001 -1.88264,0.398401 -2.39677,1.075186 -0.51413,0.676796 -0.76906,1.431985 -0.76479,2.265571 0.006,0.989589 0.2976,1.765578 0.87359,2.32797 0.57599,0.562393 1.39838,0.848789 2.46717,0.859189 0.42399,2.66e-4 0.82718,-0.03227 1.20958,-0.0976 0.38239,-0.06533 0.73439,-0.165065 1.05599,-0.299196 l -0.256,-1.318383 c -0.26,0.0896 -0.5304,0.156799 -0.81119,0.201597 -0.2808,0.0448 -0.58639,0.0672 -0.91679,0.0672 -0.46799,8.02e-4 -0.86959,-0.0968 -1.20478,-0.292796 -0.3352,-0.195996 -0.5224,-0.495191 -0.56159,-0.897588 z m -4.04474,-1.331183 c 0.0213,-0.276793 0.12586,-0.551989 0.31359,-0.82559 0.18773,-0.273592 0.48426,-0.420789 0.88959,-0.441594 0.43786,0.0232 0.73332,0.175203 0.88639,0.455994 0.15306,0.280801 0.22453,0.551197 0.2144,0.81119 z"
     style="font-size:12.80000019000000000px;font-variant:normal;font-weight:bold;font-stretch:normal;font-family:Myriad Pro;-inkscape-font-specification:Myriad Pro Bold;fill:#ffffff"
     id="path3020" /><path
     d="m 314.46311,-48.392628 5.37593,0 0,-1.638379 -3.43035,0 0,-6.98871 -1.94558,0 z"
     style="font-size:12.80000019000000000px;font-variant:normal;font-weight:bold;font-stretch:normal;font-family:Myriad Pro;-inkscape-font-specification:Myriad Pro Bold;fill:#ffffff"
     id="path3022" /><path
     d="m 326.14585,-52.09178 c 0.0163,-0.762653 -0.17947,-1.40051 -0.58719,-1.913576 -0.40774,-0.513054 -1.12506,-0.779717 -2.15198,-0.799989 -0.57253,0.0083 -1.06585,0.07174 -1.47998,0.190397 -0.41413,0.118672 -0.73146,0.242936 -0.95199,0.372796 l 0.3584,1.254383 c 0.2112,-0.131726 0.47039,-0.242658 0.77759,-0.332795 0.30719,-0.09013 0.62399,-0.13706 0.95039,-0.140799 0.46746,0.01254 0.77732,0.105871 0.92959,0.279997 0.15226,0.174136 0.22212,0.353866 0.20959,0.539193 l 0,0.0768 c -1.12185,-0.0019 -2.01091,0.193868 -2.66716,0.587192 -0.65626,0.393332 -0.99172,0.995457 -1.00639,1.806377 0.005,0.516795 0.18373,0.961589 0.53599,1.334383 0.35226,0.372795 0.84772,0.567992 1.48638,0.585592 0.37386,-8e-4 0.71413,-0.0664 1.02079,-0.196797 0.30666,-0.130398 0.56372,-0.320796 0.77119,-0.571193 l 0.0384,0 0.1152,0.627192 1.75358,0 c -0.0379,-0.177331 -0.0645,-0.398661 -0.08,-0.663991 -0.0155,-0.265329 -0.0229,-0.547459 -0.0224,-0.846389 z m -1.88158,1.420782 c 0,0.117333 -0.0128,0.228265 -0.0384,0.332795 -0.0685,0.203466 -0.19387,0.37253 -0.37599,0.507193 -0.18214,0.134667 -0.39387,0.204532 -0.63519,0.209598 -0.2224,2.68e-4 -0.4048,-0.06106 -0.5472,-0.183998 -0.1424,-0.12293 -0.216,-0.309061 -0.22079,-0.558392 0.0117,-0.36586 0.18666,-0.622924 0.52479,-0.771191 0.33812,-0.148262 0.76905,-0.219727 1.29278,-0.214397 z"
     style="font-size:12.80000019000000000px;font-variant:normal;font-weight:bold;font-stretch:normal;font-family:Myriad Pro;-inkscape-font-specification:Myriad Pro Bold;fill:#ffffff"
     id="path3024" /><path
     d="m 327.68632,-50.261404 c -5.4e-4,0.360264 -0.006,0.708525 -0.016,1.044787 -0.0101,0.336262 -0.0219,0.610925 -0.0352,0.823989 l 1.65117,0 0.0768,-0.870389 0.0256,0 c 0.2232,0.36693 0.49999,0.628259 0.83039,0.78399 0.33039,0.155731 0.68079,0.231464 1.05119,0.227197 0.74612,0 1.40104,-0.281596 1.96477,-0.844789 0.56372,-0.563191 0.86025,-1.407979 0.88959,-2.534367 -0.008,-0.971717 -0.248,-1.73864 -0.71999,-2.300771 -0.472,-0.56212 -1.08959,-0.849049 -1.85277,-0.860788 -0.43654,0.0032 -0.81466,0.0832 -1.13439,0.239997 -0.31973,0.156804 -0.57306,0.371201 -0.75999,0.643191 l -0.0256,0 0,-3.571154 -1.94557,0 z m 1.94557,-1.715178 c 0,-0.125861 0.0128,-0.245326 0.0384,-0.358395 0.0707,-0.286392 0.21093,-0.516789 0.42079,-0.691191 0.20986,-0.174393 0.44933,-0.263992 0.7184,-0.268797 0.45358,0.01174 0.79118,0.180269 1.01278,0.505594 0.22159,0.325333 0.33199,0.73706 0.3312,1.235184 -0.004,0.566395 -0.12401,1.001589 -0.36,1.305583 -0.236,0.303998 -0.56399,0.457596 -0.98398,0.460794 -0.28587,-0.0064 -0.53013,-0.096 -0.7328,-0.268796 -0.20266,-0.172796 -0.33813,-0.390393 -0.40639,-0.652792 -0.0256,-0.102396 -0.0384,-0.217595 -0.0384,-0.345595 z"
     style="font-size:12.80000019000000000px;font-variant:normal;font-weight:bold;font-stretch:normal;font-family:Myriad Pro;-inkscape-font-specification:Myriad Pro Bold;fill:#ffffff"
     id="path3026" /></g>
</g></svg>